<svg width="53" height="37" viewBox="0 0 53 37" fill="none" xmlns="http://www.w3.org/2000/svg">
<rect x="1" y="1.25537" width="51" height="35" rx="4" stroke="white"/>
<path fill-rule="evenodd" clip-rule="evenodd" d="M16.4557 14.3161C16.0847 14.7577 15.4912 15.1061 14.8977 15.0563C14.8235 14.4592 15.1141 13.8247 15.4541 13.4328C15.8251 12.9787 16.4742 12.6553 16.9998 12.6304C17.0616 13.2524 16.8205 13.862 16.4557 14.3161ZM16.9936 15.1745C16.4707 15.1442 15.9936 15.3327 15.6082 15.485L15.6082 15.485C15.3602 15.583 15.1502 15.6659 14.9904 15.6659C14.8111 15.6659 14.5924 15.5785 14.3469 15.4804C14.0252 15.3518 13.6574 15.2048 13.2716 15.2118C12.3875 15.2243 11.5652 15.7281 11.1139 16.5306C10.1865 18.1354 10.8728 20.5116 11.7692 21.8179C12.2082 22.4648 12.7337 23.1739 13.4262 23.149C13.7308 23.1375 13.95 23.0439 14.1768 22.9471C14.4379 22.8356 14.7091 22.7198 15.1326 22.7198C15.5414 22.7198 15.8008 22.8326 16.0498 22.9409C16.2865 23.0438 16.5139 23.1427 16.8514 23.1366C17.5686 23.1242 18.0199 22.4897 18.4589 21.8428C18.9326 21.1484 19.1408 20.4708 19.1724 20.368L19.1761 20.3561C19.1753 20.3553 19.1695 20.3526 19.1591 20.3479C19.0008 20.2749 17.7904 19.7174 17.7788 18.2225C17.7671 16.9677 18.7388 16.3319 18.8918 16.2319L18.8918 16.2319C18.9011 16.2258 18.9074 16.2217 18.9102 16.2195C18.2919 15.2989 17.3275 15.1994 16.9936 15.1745ZM21.9583 23.0682V13.3706H25.5751C27.4423 13.3706 28.7468 14.6644 28.7468 16.5554C28.7468 18.4464 27.4175 19.7527 25.5256 19.7527H23.4545V23.0682H21.9583ZM23.4545 14.6396H25.1794C26.4778 14.6396 27.2197 15.3362 27.2197 16.5617C27.2197 17.7871 26.4778 18.49 25.1732 18.49H23.4545V14.6396ZM33.6867 21.905C33.2911 22.6638 32.4193 23.1428 31.4795 23.1428C30.0884 23.1428 29.1178 22.3093 29.1178 21.0528C29.1178 19.8087 30.0575 19.0933 31.7948 18.9876L33.662 18.8756V18.3407C33.662 17.5507 33.1489 17.1215 32.2338 17.1215C31.4795 17.1215 30.9293 17.5134 30.818 18.1105H29.4702C29.5135 16.854 30.6882 15.9396 32.2771 15.9396C33.9897 15.9396 35.1026 16.8416 35.1026 18.2412V23.0682H33.7177V21.905H33.6867ZM31.8814 21.992C31.0838 21.992 30.5769 21.6064 30.5769 21.0154C30.5769 20.4058 31.0653 20.0513 31.9989 19.9953L33.662 19.8896V20.4369C33.662 21.3451 32.8954 21.992 31.8814 21.992ZM39.6963 23.4476C39.0966 25.1458 38.4103 25.7056 36.9512 25.7056C36.8399 25.7056 36.4689 25.6932 36.3824 25.6683V24.5051C36.4751 24.5175 36.7039 24.53 36.8213 24.53C37.4829 24.53 37.8539 24.25 38.0826 23.5223L38.2186 23.093L35.6837 16.0329H37.248L39.01 21.7619H39.0409L40.803 16.0329H42.3239L39.6963 23.4476Z" fill="white"/>
</svg>
