<svg width="30" height="30" viewBox="0 0 30 30" fill="none" xmlns="http://www.w3.org/2000/svg">
<path d="M8.48925 7.385C8.53621 6.50328 8.52632 5.68733 8.63506 4.88842C8.97117 2.4089 11.0965 0.362935 13.6025 0.0536034C16.625 -0.321491 19.2694 1.2958 20.1245 4.15772C20.379 5.01264 20.3197 5.95769 20.3988 6.86376C20.4136 7.01964 20.3988 7.17553 20.3988 7.385C20.599 7.385 20.7571 7.385 20.9128 7.385C22.282 7.385 23.6486 7.385 25.0178 7.385C25.7394 7.385 25.8902 7.50434 26.0211 8.19608C26.7625 12.1078 27.4965 16.0219 28.2379 19.9336C28.8138 22.9782 29.3921 26.0228 29.9704 29.065C30.0915 29.7007 29.8443 29.9954 29.1721 29.9978C26.7873 30.0027 24.4049 29.9978 22.02 29.9978C15.0161 29.9978 8.01228 29.9978 1.00842 29.9978C0.076718 29.9978 -0.106163 29.7786 0.0495329 28.8677C0.790943 24.5443 1.52988 20.2186 2.26882 15.8928C2.7112 13.311 3.15604 10.7267 3.60089 8.14493C3.70716 7.53114 3.88015 7.385 4.50788 7.38256C5.66942 7.37769 6.83344 7.38256 7.99498 7.38256C8.15315 7.38256 8.31379 7.38256 8.48184 7.38256L8.48925 7.385ZM1.28275 28.6801H28.71C27.3656 21.9966 26.0285 15.3472 24.6965 8.71488H20.4012C20.4012 9.5357 20.3864 10.3176 20.4111 11.097C20.4161 11.2894 20.505 11.511 20.6261 11.6669C21.0339 12.1906 21.0141 12.8531 20.5396 13.2745C20.0824 13.6837 19.3781 13.6739 18.9382 13.255C18.4835 12.8214 18.4711 12.1516 18.8987 11.6474C18.9802 11.5524 19.0889 11.4355 19.0889 11.3284C19.1038 10.4613 19.0988 9.59416 19.0988 8.71244H9.83615C9.83615 9.58928 9.82873 10.4296 9.84356 11.2675C9.84356 11.3917 9.93995 11.5305 10.0264 11.6353C10.454 12.1467 10.449 12.8117 9.99926 13.2452C9.547 13.6837 8.82042 13.6837 8.36569 13.2477C7.9159 12.8141 7.90601 12.1419 8.33603 11.6353C8.41511 11.5403 8.52385 11.4234 8.52632 11.3162C8.54115 10.4515 8.53374 9.58441 8.53374 8.69539H4.92307C3.7121 15.3448 2.50113 21.9942 1.28275 28.6753V28.6801ZM9.87569 7.35333H19.0791C19.0791 6.71275 19.1211 6.10383 19.0716 5.49978C18.9283 3.75583 18.0485 2.46005 16.4495 1.71717C14.8357 0.969419 13.2392 1.10582 11.7762 2.12149C9.91523 3.41484 9.68292 5.30493 9.87569 7.35333Z" fill="#4D4D4D"/>
</svg>
