<svg width="53" height="37" viewBox="0 0 53 37" fill="none" xmlns="http://www.w3.org/2000/svg">
<rect x="1.06885" y="1.25537" width="50.6897" height="35" rx="4" stroke="white"/>
<path fill-rule="evenodd" clip-rule="evenodd" d="M34.6194 18.8528H34.6407H34.6818H34.723H34.7641H34.8053H34.8464H34.8876H34.9288H34.97H35.0111H35.0523H35.0934H35.1346H35.1757H35.2169H35.2581H35.2992H35.3404H35.3816H35.4227H35.4639H35.505H35.5462H35.5874H35.6285H35.6697H35.7109H35.752H35.7932H35.8343H35.8755H35.9167H35.9578H35.999H36.0402H36.0813H36.1225H36.1636H36.2048H36.2459H36.2871H36.3283H36.3694H36.4106H36.4518H36.4929H36.5341H36.5752H36.6164H36.6576H36.6987H36.7399H36.781H36.8222H36.8633H36.9045H36.9457H36.9869H37.028H37.0692H37.1034L37.1103 18.8529C37.123 18.8532 37.1369 18.8538 37.1515 18.8546C37.1647 18.8553 37.1785 18.8562 37.1926 18.8573C37.2062 18.8583 37.22 18.8594 37.2338 18.8607C37.2477 18.8619 37.2615 18.8633 37.275 18.8648C37.2891 18.8664 37.303 18.868 37.3161 18.8698C37.3309 18.8717 37.3448 18.8738 37.3573 18.8759C37.3664 18.8774 37.3747 18.879 37.3822 18.8806L37.3985 18.8843C37.4122 18.8874 37.426 18.8909 37.4396 18.8947C37.4534 18.8984 37.4671 18.9024 37.4808 18.9068C37.4946 18.9112 37.5083 18.9158 37.5219 18.9207C37.5358 18.9257 37.5495 18.9309 37.5631 18.9365C37.5769 18.9421 37.5907 18.948 37.6043 18.9542C37.6181 18.9605 37.6318 18.967 37.6454 18.9739C37.6593 18.9809 37.673 18.9882 37.6866 18.9958C37.7005 19.0036 37.7142 19.0117 37.7278 19.0201C37.7416 19.0287 37.7554 19.0375 37.7689 19.0467C37.7828 19.0562 37.7966 19.066 37.8101 19.0761C37.824 19.0865 37.8378 19.0974 37.8512 19.1085C37.8652 19.1201 37.879 19.1321 37.8924 19.1443C37.9065 19.1572 37.9202 19.1703 37.9336 19.1838C37.9477 19.1981 37.9614 19.2128 37.9747 19.2279C37.9889 19.2439 38.0026 19.2604 38.0159 19.2773C38.0302 19.2955 38.0439 19.3142 38.0571 19.3334C38.0715 19.3544 38.0852 19.3759 38.0982 19.3981C38.1129 19.423 38.1266 19.4487 38.1394 19.475C38.1545 19.5063 38.1683 19.5385 38.1805 19.5716C38.197 19.6161 38.2108 19.6622 38.2217 19.7098C38.2405 19.7923 38.2507 19.8792 38.2507 19.97C38.2507 20.0612 38.2406 20.1485 38.2217 20.2312C38.2108 20.279 38.197 20.3252 38.1805 20.3698C38.1683 20.403 38.1545 20.4352 38.1394 20.4666C38.1266 20.4929 38.1129 20.5187 38.0982 20.5436C38.0852 20.5658 38.0715 20.5873 38.0571 20.6084C38.0439 20.6275 38.0301 20.6462 38.0159 20.6644C38.0026 20.6813 37.9889 20.6978 37.9747 20.7138C37.9614 20.7289 37.9477 20.7436 37.9336 20.7579C37.9202 20.7714 37.9064 20.7845 37.8924 20.7973C37.879 20.8096 37.8652 20.8214 37.8512 20.833C37.8378 20.8441 37.8241 20.8549 37.8101 20.8653C37.7966 20.8754 37.7828 20.8851 37.7689 20.8946C37.7554 20.9038 37.7416 20.9126 37.7278 20.9212C37.7142 20.9295 37.7005 20.9376 37.6866 20.9453C37.673 20.9528 37.6593 20.9601 37.6454 20.967C37.6318 20.9738 37.6181 20.9804 37.6043 20.9867C37.5907 20.9928 37.5769 20.9986 37.5631 21.0042C37.5495 21.0097 37.5358 21.0149 37.5219 21.0198C37.5083 21.0247 37.4946 21.0292 37.4808 21.0336C37.4671 21.0378 37.4534 21.0418 37.4396 21.0455C37.426 21.0492 37.4122 21.0526 37.3985 21.0557L37.3822 21.0594C37.3747 21.0611 37.3664 21.0627 37.3573 21.0643C37.3448 21.0665 37.3309 21.0686 37.3161 21.0706C37.303 21.0724 37.2891 21.0741 37.275 21.0756C37.2615 21.0771 37.2477 21.0785 37.2338 21.0797C37.22 21.081 37.2062 21.0821 37.1926 21.083C37.1785 21.084 37.1647 21.0849 37.1515 21.0856C37.1369 21.0863 37.123 21.0869 37.1103 21.0872L37.0883 21.0875H37.0692H37.028H36.9869H36.9457H36.9045H36.8633H36.8222H36.781H36.7399H36.6987H36.6576H36.6164H36.5752H36.5341H36.4929H36.4518H36.4106H36.3694H36.3283H36.2871H36.2459H36.2048H36.1636H36.1225H36.0813H36.0402H35.999H35.9578H35.9167H35.8755H35.8343H35.7932H35.752H35.7109H35.6697H35.6285H35.5874H35.5462H35.505H35.4639H35.4227H35.3816H35.3404H35.2992H35.2581H35.2169H35.1757H35.1346H35.0934H35.0523H35.0111H34.97H34.9288H34.8876H34.8464H34.8053H34.7641H34.723H34.6818H34.6407H34.6194V18.8528ZM37.9337 16.3236C37.9503 16.3986 37.9591 16.478 37.9591 16.5617C37.9591 16.6452 37.9503 16.7246 37.9337 16.7996C37.9231 16.8477 37.9093 16.894 37.8925 16.9384C37.8803 16.9708 37.8666 17.0021 37.8514 17.0324C37.8387 17.0578 37.8249 17.0824 37.8102 17.1062C37.7972 17.1273 37.7834 17.1478 37.769 17.1676C37.7559 17.1857 37.7422 17.2033 37.7279 17.2203C37.7146 17.2362 37.7009 17.2516 37.6867 17.2665C37.6734 17.2805 37.6597 17.2941 37.6456 17.3073C37.6322 17.3198 37.6185 17.332 37.6044 17.3438C37.591 17.355 37.5773 17.3659 37.5633 17.3764C37.5498 17.3866 37.5361 17.3964 37.5221 17.4059C37.5086 17.415 37.4949 17.4238 37.4809 17.4324C37.4674 17.4406 37.4537 17.4486 37.4398 17.4562C37.4262 17.4637 37.4125 17.4708 37.3986 17.4777C37.3851 17.4844 37.3713 17.4908 37.3575 17.4969C37.3439 17.5029 37.3302 17.5086 37.3163 17.514C37.3027 17.5194 37.289 17.5244 37.2752 17.5292C37.2615 17.5339 37.2478 17.5383 37.234 17.5425C37.2204 17.5466 37.2066 17.5504 37.1928 17.554C37.1792 17.5575 37.1655 17.5608 37.1517 17.5638C37.1381 17.5667 37.1243 17.5694 37.1105 17.5718L37.1005 17.5736C37.0925 17.575 37.0819 17.5766 37.0693 17.5781C37.0572 17.5797 37.0432 17.5812 37.0282 17.5827C37.0152 17.5841 37.0013 17.5853 36.987 17.5865C36.9736 17.5876 36.9597 17.5886 36.9459 17.5895C36.932 17.5904 36.9182 17.5911 36.9047 17.5917C36.8904 17.5923 36.8766 17.5926 36.8636 17.5927L36.857 17.5927H36.8224H36.7812H36.7401H36.6989H36.6577H36.6166H36.5754H36.5343H36.4931H36.452H36.4108H36.3696H36.3285H36.2873H36.2461H36.205H36.1638H36.1227H36.0815H36.0404H35.9992H35.958H35.9169H35.8757H35.8345H35.7934H35.7522H35.7111H35.6699H35.6288H35.5876H35.5464H35.5053H35.4641H35.423H35.3818H35.3406H35.2995H35.2583H35.2172H35.176H35.1348H35.0937H35.0525H35.0114H34.9702H34.929H34.8879H34.8467H34.8056H34.7644H34.7232H34.6821H34.6409H34.6194V15.5306H34.6409H34.6821H34.7232H34.7644H34.8056H34.8467H34.8879H34.929H34.9702H35.0114H35.0525H35.0937H35.1348H35.176H35.2172H35.2583H35.2995H35.3406H35.3818H35.423H35.4641H35.5053H35.5464H35.5876H35.6288H35.6699H35.7111H35.7522H35.7934H35.8345H35.8757H35.9169H35.958H35.9992H36.0404H36.0815H36.1227H36.1638H36.205H36.2461H36.2873H36.3285H36.3696H36.4108H36.452H36.4931H36.5343H36.5754H36.6166H36.6577H36.6989H36.7401H36.7812H36.8224H36.8636H36.8809L36.9047 15.5313C36.9182 15.5319 36.932 15.5327 36.9459 15.5336C36.9597 15.5344 36.9736 15.5355 36.987 15.5365C37.0013 15.5377 37.0152 15.539 37.0282 15.5402C37.0432 15.5417 37.0572 15.5432 37.0693 15.5445C37.0819 15.546 37.0925 15.5473 37.1005 15.5484L37.1105 15.5502C37.1243 15.5527 37.1381 15.5555 37.1517 15.5585C37.1655 15.5615 37.1792 15.5648 37.1928 15.5683C37.2066 15.572 37.2204 15.5758 37.234 15.5799C37.2478 15.5841 37.2615 15.5886 37.2752 15.5933C37.289 15.5981 37.3027 15.6032 37.3163 15.6086C37.3302 15.614 37.3439 15.6198 37.3575 15.6258C37.3713 15.6319 37.3851 15.6383 37.3986 15.6451C37.4125 15.6519 37.4262 15.6591 37.4398 15.6665C37.4537 15.6742 37.4674 15.6822 37.4809 15.6905C37.4949 15.699 37.5086 15.7078 37.5221 15.717C37.5361 15.7264 37.5498 15.7363 37.5633 15.7465C37.5773 15.757 37.591 15.7679 37.6044 15.7791C37.6185 15.7909 37.6322 15.8031 37.6456 15.8156C37.6597 15.8288 37.6734 15.8424 37.6867 15.8564C37.7009 15.8713 37.7146 15.8868 37.7279 15.9026C37.7422 15.9197 37.7559 15.9372 37.769 15.9553C37.7834 15.9752 37.7972 15.9956 37.8102 16.0167C37.8249 16.0406 37.8387 16.0652 37.8514 16.0906C37.8666 16.1208 37.8803 16.1523 37.8925 16.1846C37.9093 16.229 37.9231 16.2754 37.9337 16.3236ZM43.0383 5.63037H43.0551L43.0551 26.8096C43.0551 26.9361 43.0492 27.0613 43.0383 27.185C43.0286 27.2939 43.0148 27.4016 42.9971 27.5079C42.9851 27.5794 42.9714 27.6502 42.9559 27.7204C42.9433 27.7775 42.9296 27.8342 42.9147 27.8905C42.9019 27.939 42.8881 27.9871 42.8736 28.0349C42.8605 28.0782 42.8469 28.1212 42.8324 28.1639C42.8193 28.2025 42.8054 28.2409 42.7913 28.2791C42.778 28.3146 42.7642 28.3499 42.7501 28.3851C42.7368 28.418 42.723 28.4508 42.7089 28.4833C42.6955 28.5142 42.6818 28.5448 42.6677 28.5753C42.6543 28.6043 42.6406 28.6332 42.6266 28.6618C42.6131 28.6892 42.5994 28.7166 42.5854 28.7437C42.572 28.7697 42.5582 28.7956 42.5443 28.8212C42.5308 28.8459 42.517 28.8704 42.5031 28.8948C42.4896 28.9184 42.4758 28.9418 42.4619 28.9651C42.4484 28.9878 42.4347 29.0104 42.4207 29.0328C42.4072 29.0547 42.3935 29.0765 42.3796 29.098C42.366 29.1189 42.3522 29.1396 42.3384 29.1602C42.3249 29.1803 42.3111 29.2002 42.2972 29.22C42.2836 29.2395 42.2699 29.2589 42.256 29.2782C42.2425 29.2969 42.2288 29.3157 42.2149 29.3342C42.2013 29.3523 42.1875 29.3702 42.1737 29.388C42.1601 29.4056 42.1464 29.4232 42.1326 29.4405C42.1189 29.4576 42.1053 29.4745 42.0914 29.4913C42.0778 29.5077 42.064 29.524 42.0502 29.5403C42.0365 29.5563 42.023 29.5724 42.009 29.5883C41.9955 29.6038 41.9817 29.6191 41.9679 29.6343C41.9543 29.6495 41.9405 29.6645 41.9267 29.6794C41.9131 29.6941 41.8994 29.7088 41.8856 29.7233C41.872 29.7375 41.8582 29.7515 41.8444 29.7656C41.8307 29.7795 41.8171 29.7935 41.8032 29.8073C41.7896 29.8208 41.7758 29.8339 41.762 29.8472C41.7484 29.8604 41.7347 29.8736 41.7209 29.8866C41.7072 29.8994 41.6935 29.912 41.6797 29.9247C41.6661 29.9372 41.6523 29.9496 41.6385 29.9619C41.6249 29.9741 41.6112 29.9862 41.5974 29.9981C41.5837 30.01 41.57 30.0217 41.5562 30.0334C41.5425 30.045 41.5289 30.0566 41.515 30.068C41.5014 30.0792 41.4876 30.0903 41.4739 30.1014C41.4602 30.1124 41.4465 30.1234 41.4327 30.1343C41.4191 30.145 41.4053 30.1555 41.3915 30.166C41.3778 30.1765 41.3642 30.187 41.3504 30.1973C41.3368 30.2075 41.3229 30.2175 41.3092 30.2275C41.2955 30.2374 41.2818 30.2475 41.268 30.2573C41.2544 30.267 41.2406 30.2764 41.2269 30.286C41.2131 30.2955 41.1995 30.305 41.1857 30.3143C41.172 30.3236 41.1583 30.3325 41.1445 30.3416C41.1308 30.3506 41.1172 30.3597 41.1033 30.3686C41.0897 30.3773 41.0759 30.3859 41.0622 30.3945C41.0485 30.4031 41.0348 30.4117 41.021 30.4201C41.0074 30.4284 40.9936 30.4367 40.9799 30.4449L40.9387 30.4691C40.925 30.477 40.9113 30.4849 40.8975 30.4927C40.8839 30.5004 40.8701 30.508 40.8563 30.5156C40.8426 30.5231 40.829 30.5308 40.8152 30.5381C40.8015 30.5455 40.7878 30.5525 40.774 30.5597C40.7603 30.5669 40.7466 30.5743 40.7328 30.5813C40.7192 30.5883 40.7054 30.5949 40.6917 30.6017C40.678 30.6085 40.6643 30.6153 40.6505 30.622C40.6368 30.6286 40.6231 30.635 40.6093 30.6414L40.5682 30.6605L40.527 30.6791C40.5133 30.6851 40.4996 30.691 40.4858 30.697C40.4721 30.7029 40.4585 30.7089 40.4447 30.7147C40.431 30.7204 40.4172 30.7258 40.4035 30.7314C40.3898 30.737 40.3761 30.7427 40.3623 30.7481C40.3487 30.7535 40.3349 30.7586 40.3212 30.7639C40.3075 30.7691 40.2938 30.7743 40.28 30.7794L40.2388 30.7945C40.2251 30.7994 40.2114 30.8041 40.1976 30.8089C40.1839 30.8136 40.1703 30.8186 40.1565 30.8232C40.1428 30.8278 40.129 30.8321 40.1153 30.8365L40.0742 30.8498C40.0605 30.8541 40.0467 30.8582 40.033 30.8624L39.9918 30.8745C39.9781 30.8785 39.9644 30.8826 39.9506 30.8865C39.937 30.8903 39.9232 30.8939 39.9095 30.8976C39.8958 30.9013 39.8821 30.9051 39.8683 30.9086L39.8272 30.9189L39.786 30.9289L39.7448 30.9386C39.7311 30.9418 39.7174 30.9446 39.7036 30.9476C39.6899 30.9505 39.6762 30.9536 39.6625 30.9565L39.6213 30.9646L39.5801 30.9725C39.5664 30.975 39.5527 30.9777 39.539 30.9802C39.5253 30.9826 39.5115 30.9847 39.4978 30.9869L39.4566 30.9937L39.4155 30.9998L39.3743 31.0056C39.3606 31.0074 39.3469 31.0095 39.3331 31.0113C39.3194 31.013 39.3057 31.0144 39.292 31.016C39.2783 31.0176 39.2645 31.0192 39.2508 31.0206C39.2371 31.0221 39.2234 31.0236 39.2096 31.0249C39.196 31.0262 39.1822 31.0274 39.1685 31.0285C39.1547 31.0297 39.141 31.0311 39.1273 31.0322C39.1136 31.0332 39.0998 31.0341 39.0861 31.035L39.0449 31.0376C39.0312 31.0384 39.0175 31.0394 39.0038 31.0401C38.9901 31.0407 38.9763 31.0411 38.9626 31.0416L38.9215 31.0432L38.8803 31.0442C38.8666 31.0445 38.8528 31.0446 38.8391 31.0448L38.7979 31.0453L38.7894 31.0454H38.7568H38.7156H38.6745H38.6333H38.5921H38.5509H38.5098H38.4686H38.4274H38.3863H38.3451H38.3039H38.2628H38.2216H38.1804H38.1392H38.0981H38.0569H38.0158H37.9746H37.9334H37.8922H37.8511H37.8099H37.7688H37.7276H37.6864H37.6452H37.6041H37.5629H37.5217H37.4806H37.4394H37.3982H37.3571H37.3159H37.2747H37.2336H37.1924H37.1512H37.1101H37.0689H37.0277H36.9865H36.9454H36.9042H36.8631H36.8219H36.7807H36.7395H36.6984H36.6572H36.6161H36.5749H36.5337H36.4925H36.4514H36.4102H36.369H36.3279H36.2867H36.2455H36.2044H36.1632H36.122H36.0809H36.0397H35.9985H35.9574H35.9162H35.875H35.8338H35.7927H35.7515H35.7104H35.6692H35.628H35.5868H35.5457H35.5045H35.4633H35.4222H35.381H35.3398H35.2987H35.2575H35.2163H35.1752H35.134H35.0928H35.0517H35.0105H34.9693H34.9281H34.887H34.8458H34.8047H34.7635H34.7223H34.6811H34.64H34.5988H34.5577H34.5165H34.4753H34.4341H34.393H34.3518H34.3106H34.2695H34.2283H34.1871H34.146H34.1048H34.0636H34.0225H33.9813H33.9402H33.899H33.8578H33.8166H33.7754H33.7343H33.6931H33.652H33.6108H33.5696H33.5285H33.4873H33.4461H33.405H33.3638H33.3226H33.2815H33.2403H33.1991H33.1579H33.1168H33.0756H33.0345H32.9933H32.9521H32.9109H32.8698H32.8286H32.7874H32.7463H32.7051H32.6639H32.6228H32.5339V22.4099H32.6228H32.6639H32.7051H32.7463H32.7874H32.8286H32.8698H32.9109H32.9521H32.9933H33.0345H33.0756H33.1168H33.1579H33.1991H33.2403H33.2815H33.3226H33.3638H33.405H33.4461H33.4873H33.5285H33.5696H33.6108H33.652H33.6931H33.7343H33.7754H33.8166H33.8578H33.899H33.9402H33.9813H34.0225H34.0636H34.1048H34.146H34.1871H34.2283H34.2695H34.3106H34.3518H34.393H34.4341H34.4753H34.5165H34.5577H34.5988H34.64H34.6811H34.7223H34.7635H34.8047H34.8458H34.887H34.9281H34.9693H35.0105H35.0517H35.0928H35.134H35.1752H35.2163H35.2575H35.2987H35.3398H35.381H35.4222H35.4633H35.5045H35.5457H35.5868H35.628H35.6692H35.7104H35.7515H35.7927H35.8338H35.875H35.9162H35.9574H35.9985H36.0397H36.0809H36.122H36.1632H36.2044H36.2455H36.2867H36.3279H36.369H36.4102H36.4514H36.4925H36.5337H36.5749H36.6161H36.6572H36.6984H36.7395H36.7807H36.8219H36.8631H36.9042H36.9454H36.9865H37.0277H37.0689H37.1101H37.1512H37.1924H37.2336H37.2747H37.3159H37.3571H37.3982H37.4394H37.4806H37.5217H37.5629H37.6041H37.6452H37.6864H37.7276H37.7688H37.8099H37.8511H37.8922H37.9334H37.9746H38.0158H38.0569H38.0981H38.1392H38.1804H38.2216H38.2628H38.3039H38.3451H38.3863H38.4274H38.4686H38.5098H38.5509H38.5921H38.6333H38.6745H38.7156H38.7568H38.7979H38.8391H38.8803H38.9215H38.9626H39.0038H39.0449H39.0861H39.1273H39.1491L39.1685 22.4097L39.2096 22.4094L39.2508 22.4085C39.2645 22.4082 39.2783 22.408 39.292 22.4075C39.3058 22.407 39.3194 22.4064 39.3331 22.4058L39.3743 22.4039L39.4155 22.4014L39.4566 22.3986L39.4978 22.3954L39.539 22.3917C39.5527 22.3904 39.5665 22.3891 39.5801 22.3877C39.5939 22.3863 39.6076 22.3846 39.6213 22.383L39.6625 22.3781C39.6762 22.3763 39.69 22.3746 39.7036 22.3727C39.7174 22.3708 39.7311 22.3687 39.7448 22.3667C39.7586 22.3646 39.7723 22.3626 39.786 22.3604L39.8272 22.3535L39.8683 22.3461C39.8821 22.3436 39.8958 22.3411 39.9095 22.3385C39.9233 22.3357 39.937 22.3328 39.9506 22.33L39.9918 22.3211C40.0056 22.3181 40.0193 22.315 40.033 22.3119C40.0468 22.3086 40.0605 22.3052 40.0742 22.3018C40.0879 22.2984 40.1017 22.295 40.1153 22.2914C40.1291 22.2878 40.1428 22.2842 40.1565 22.2804C40.1703 22.2767 40.184 22.2728 40.1976 22.2688C40.2114 22.2648 40.2252 22.2608 40.2388 22.2567L40.28 22.2438C40.2938 22.2395 40.3075 22.2349 40.3212 22.2304C40.3349 22.2258 40.3487 22.2211 40.3623 22.2164C40.3761 22.2116 40.3899 22.2067 40.4035 22.2018C40.4173 22.1967 40.431 22.1914 40.4447 22.1862C40.4585 22.1809 40.4722 22.1756 40.4858 22.1701C40.4996 22.1646 40.5134 22.1591 40.527 22.1534C40.5408 22.1476 40.5545 22.1418 40.5682 22.1358C40.582 22.1298 40.5957 22.1236 40.6093 22.1174C40.6231 22.111 40.6369 22.1047 40.6505 22.0982C40.6643 22.0917 40.6781 22.0851 40.6917 22.0784C40.7055 22.0715 40.7192 22.0645 40.7328 22.0574C40.7466 22.0503 40.7604 22.0429 40.774 22.0355C40.7879 22.028 40.8016 22.0205 40.8152 22.0128C40.829 22.005 40.8428 21.9971 40.8563 21.9891C40.8702 21.9809 40.8839 21.9727 40.8975 21.9644C40.9114 21.9558 40.9251 21.9471 40.9387 21.9383C40.9526 21.9294 40.9662 21.9203 40.9799 21.9111C40.9937 21.9018 41.0074 21.8923 41.021 21.8827C41.0349 21.8729 41.0486 21.863 41.0622 21.853C41.0761 21.8428 41.0898 21.8324 41.1033 21.8219C41.1172 21.8111 41.131 21.8003 41.1445 21.7893C41.1584 21.778 41.1721 21.7666 41.1857 21.755C41.1996 21.7432 41.2133 21.7311 41.2269 21.7189C41.2408 21.7064 41.2545 21.6937 41.268 21.6809C41.282 21.6677 41.2957 21.6543 41.3092 21.6407C41.3232 21.6267 41.3369 21.6126 41.3504 21.5982C41.3643 21.5833 41.378 21.5683 41.3915 21.5531C41.4055 21.5372 41.4193 21.5212 41.4327 21.505C41.4467 21.4881 41.4604 21.4709 41.4739 21.4536C41.4879 21.4355 41.5017 21.4172 41.515 21.3986C41.5292 21.3788 41.5428 21.3588 41.5562 21.3385C41.5703 21.317 41.5841 21.2953 41.5974 21.2732C41.6116 21.2495 41.6254 21.2255 41.6385 21.2012C41.6529 21.1747 41.6667 21.148 41.6797 21.1207C41.6943 21.0903 41.708 21.0594 41.7209 21.0281C41.7357 20.9922 41.7494 20.9558 41.762 20.9187C41.7775 20.8731 41.7912 20.8265 41.8032 20.7791C41.8208 20.7098 41.8345 20.6386 41.8444 20.5658C41.8563 20.4774 41.8626 20.3865 41.8626 20.2932C41.8626 20.2023 41.8564 20.114 41.8444 20.0282C41.8345 19.9578 41.8207 19.8891 41.8032 19.8222C41.7912 19.7766 41.7775 19.7319 41.762 19.6881C41.7494 19.6521 41.7357 19.6167 41.7209 19.5819C41.708 19.5518 41.6942 19.5221 41.6797 19.4929C41.6666 19.4666 41.6529 19.4407 41.6385 19.4151C41.6253 19.3916 41.6116 19.3684 41.5974 19.3455C41.5841 19.3243 41.5703 19.3033 41.5562 19.2826C41.5428 19.2631 41.5292 19.2437 41.515 19.2247C41.5017 19.2068 41.4879 19.1891 41.4739 19.1716C41.4604 19.1549 41.4467 19.1384 41.4327 19.1221C41.4192 19.1064 41.4055 19.0909 41.3915 19.0756C41.378 19.0609 41.3644 19.0464 41.3504 19.032C41.3369 19.0182 41.3231 19.0046 41.3092 18.9911C41.2957 18.978 41.2819 18.9651 41.268 18.9524C41.2545 18.94 41.2407 18.9278 41.2269 18.9157C41.2133 18.904 41.1996 18.8923 41.1857 18.8809C41.1721 18.8697 41.1584 18.8587 41.1445 18.8478C41.1309 18.8371 41.1172 18.8266 41.1033 18.8162C41.0898 18.806 41.076 18.796 41.0622 18.7861C41.0486 18.7764 41.0349 18.7668 41.021 18.7574C41.0074 18.7481 40.9937 18.7389 40.9799 18.7299C40.9662 18.721 40.9525 18.7122 40.9387 18.7036C40.9251 18.6951 40.9114 18.6867 40.8975 18.6785C40.8839 18.6704 40.8702 18.6624 40.8563 18.6545C40.8427 18.6467 40.829 18.6391 40.8152 18.6315C40.8016 18.624 40.7879 18.6167 40.774 18.6095C40.7604 18.6024 40.7466 18.5953 40.7328 18.5883C40.7192 18.5815 40.7055 18.5747 40.6917 18.568C40.678 18.5614 40.6643 18.5549 40.6505 18.5485C40.6369 18.5422 40.6231 18.536 40.6093 18.5299C40.5957 18.5239 40.582 18.518 40.5682 18.5121C40.5545 18.5063 40.5408 18.5006 40.527 18.495C40.5133 18.4894 40.4997 18.4839 40.4858 18.4785C40.4722 18.4732 40.4585 18.4679 40.4447 18.4628C40.431 18.4577 40.4173 18.4528 40.4035 18.4478C40.3898 18.443 40.3761 18.4382 40.3623 18.4335C40.3487 18.4288 40.335 18.4242 40.3212 18.4196C40.3075 18.4151 40.2938 18.4108 40.28 18.4065C40.2664 18.4022 40.2526 18.3981 40.2388 18.394L40.1976 18.382C40.184 18.3781 40.1703 18.3742 40.1565 18.3704C40.1428 18.3667 40.1291 18.3632 40.1153 18.3597C40.1017 18.3561 40.0879 18.3528 40.0742 18.3494C40.0605 18.346 40.0468 18.3427 40.033 18.3395C40.0193 18.3363 40.0056 18.3332 39.9918 18.3302C39.9782 18.3272 39.9644 18.3243 39.9506 18.3215C39.937 18.3186 39.9233 18.3158 39.9095 18.3131L39.8683 18.3053L39.8272 18.298C39.8135 18.2956 39.7998 18.2933 39.786 18.291L39.7448 18.2846C39.7311 18.2825 39.7174 18.2806 39.7036 18.2787L39.6625 18.2731L39.6213 18.268L39.5801 18.2634L39.539 18.2591L39.4978 18.2553L39.4566 18.2518L39.4186 18.2489L39.4186 18.1999L39.4566 18.1941L39.4978 18.1873C39.5116 18.185 39.5253 18.1826 39.539 18.1802L39.5801 18.1723C39.5939 18.1696 39.6077 18.1668 39.6213 18.1639L39.6625 18.155C39.6762 18.1519 39.69 18.1488 39.7036 18.1455C39.7175 18.1422 39.7311 18.1388 39.7448 18.1353C39.7586 18.1318 39.7723 18.1282 39.786 18.1245C39.7998 18.1208 39.8135 18.117 39.8272 18.1131C39.8409 18.1091 39.8547 18.1052 39.8683 18.1011C39.8821 18.097 39.8959 18.0927 39.9095 18.0883C39.9233 18.0839 39.937 18.0794 39.9506 18.0748C39.9645 18.0702 39.9782 18.0654 39.9918 18.0606C40.0056 18.0557 40.0194 18.0508 40.033 18.0457C40.0468 18.0405 40.0605 18.0353 40.0742 18.03C40.088 18.0246 40.1017 18.0191 40.1153 18.0135C40.1292 18.0078 40.1429 18.002 40.1565 17.9961C40.1703 17.9901 40.184 17.984 40.1976 17.9778C40.2115 17.9716 40.2252 17.9651 40.2388 17.9586C40.2527 17.952 40.2664 17.9453 40.28 17.9385C40.2938 17.9315 40.3076 17.9245 40.3212 17.9173C40.335 17.91 40.3488 17.9026 40.3623 17.8951C40.3762 17.8875 40.3899 17.8797 40.4035 17.8718C40.4173 17.8638 40.4311 17.8556 40.4447 17.8474C40.4586 17.8389 40.4722 17.8304 40.4858 17.8217C40.4997 17.8129 40.5134 17.8038 40.527 17.7947C40.5409 17.7854 40.5546 17.776 40.5682 17.7664C40.5821 17.7565 40.5958 17.7466 40.6093 17.7365C40.6233 17.7262 40.637 17.7158 40.6505 17.7052C40.6644 17.6943 40.6782 17.6833 40.6917 17.6721C40.7056 17.6606 40.7193 17.6489 40.7328 17.6371C40.7468 17.6249 40.7605 17.6125 40.774 17.6C40.788 17.5871 40.8017 17.574 40.8152 17.5608C40.8291 17.5471 40.8429 17.5333 40.8563 17.5193C40.8704 17.5046 40.8841 17.4899 40.8975 17.4749C40.9115 17.4593 40.9253 17.4435 40.9387 17.4275C40.9527 17.4108 40.9665 17.3939 40.9799 17.3767C40.9939 17.3587 41.0077 17.3404 41.021 17.3219C41.0352 17.3023 41.0489 17.2824 41.0622 17.2623C41.0764 17.2409 41.0901 17.2193 41.1033 17.1974C41.1176 17.1736 41.1314 17.1496 41.1445 17.1253C41.159 17.0986 41.1727 17.0715 41.1857 17.0442C41.2003 17.0134 41.214 16.9822 41.2269 16.9507C41.2418 16.914 41.2555 16.8767 41.268 16.839C41.2837 16.7916 41.2975 16.7434 41.3092 16.6946C41.3282 16.6155 41.3419 16.5347 41.3504 16.4524C41.3571 16.3876 41.3605 16.3218 41.3605 16.2555C41.3605 16.1854 41.357 16.117 41.3504 16.0504C41.3419 15.9652 41.3281 15.8829 41.3092 15.8035C41.2974 15.7539 41.2837 15.7054 41.268 15.6581C41.2555 15.6202 41.2418 15.5831 41.2269 15.5467C41.214 15.5154 41.2003 15.4846 41.1857 15.4543C41.1726 15.4274 41.1589 15.4008 41.1445 15.3747C41.1314 15.3509 41.1176 15.3273 41.1033 15.3042C41.0901 15.2826 41.0764 15.2614 41.0622 15.2406C41.0489 15.221 41.0351 15.2018 41.021 15.1828C41.0077 15.1648 40.9939 15.1471 40.9799 15.1296C40.9664 15.113 40.9528 15.0965 40.9387 15.0802C40.9253 15.0648 40.9115 15.0497 40.8975 15.0347C40.8841 15.0202 40.8703 15.006 40.8563 14.9919C40.8429 14.9784 40.8291 14.965 40.8152 14.9518C40.8017 14.9391 40.788 14.9264 40.774 14.914C40.7605 14.902 40.7467 14.8901 40.7328 14.8784C40.7193 14.867 40.7056 14.8558 40.6917 14.8447C40.6781 14.8339 40.6644 14.8232 40.6505 14.8127C40.6369 14.8025 40.6232 14.7925 40.6093 14.7825C40.5958 14.7728 40.582 14.7632 40.5682 14.7538C40.5546 14.7446 40.5409 14.7355 40.527 14.7265C40.5134 14.7177 40.4997 14.709 40.4858 14.7005C40.4722 14.6921 40.4585 14.6839 40.4447 14.6757C40.4311 14.6678 40.4173 14.6599 40.4035 14.6521C40.3899 14.6445 40.3762 14.637 40.3623 14.6296C40.3487 14.6223 40.335 14.6152 40.3212 14.6081C40.3075 14.6012 40.2938 14.5943 40.28 14.5876C40.2664 14.5809 40.2527 14.5743 40.2388 14.5679C40.2252 14.5616 40.2115 14.5553 40.1976 14.5492C40.184 14.5432 40.1703 14.5374 40.1565 14.5315C40.1429 14.5257 40.1291 14.5201 40.1153 14.5145C40.1017 14.509 40.0879 14.5036 40.0742 14.4983C40.0605 14.493 40.0468 14.4878 40.033 14.4827C40.0193 14.4777 40.0056 14.4728 39.9918 14.4679C39.9782 14.4632 39.9645 14.4585 39.9506 14.4539C39.937 14.4494 39.9233 14.4449 39.9095 14.4405C39.8958 14.4362 39.8821 14.4319 39.8683 14.4278C39.8546 14.4236 39.841 14.4195 39.8272 14.4155C39.8135 14.4116 39.7998 14.4079 39.786 14.4042C39.7723 14.4004 39.7586 14.3968 39.7448 14.3933L39.7036 14.3829C39.69 14.3795 39.6763 14.3762 39.6625 14.373C39.6488 14.3699 39.6351 14.3668 39.6213 14.3639L39.5801 14.3552C39.5664 14.3523 39.5528 14.3495 39.539 14.3469C39.5253 14.3442 39.5115 14.3418 39.4978 14.3393L39.4566 14.3321C39.443 14.3298 39.4293 14.3274 39.4155 14.3253L39.3743 14.3191L39.3331 14.3133L39.292 14.3079L39.2508 14.303L39.2096 14.2986L39.1685 14.2945L39.1273 14.2909L39.0861 14.2878L39.0449 14.2849L39.0038 14.2825L38.9874 14.2816L38.9626 14.2801L38.9215 14.2777L38.8803 14.2754L38.8391 14.2733L38.7979 14.2713L38.7568 14.2696L38.7156 14.2681L38.6745 14.2668L38.6333 14.2659L38.5921 14.2654L38.5694 14.2653H38.5509H38.5098H38.4686H38.4274H38.3863H38.3451H38.3039H38.2628H38.2216H38.1804H38.1392H38.0981H38.0569H38.0158H37.9746H37.9334H37.8922H37.8511H37.8099H37.7688H37.7276H37.6864H37.6452H37.6041H37.5629H37.5217H37.4806H37.4394H37.3982H37.3571H37.3159H37.2747H37.2336H37.1924H37.1512H37.1101H37.0689H37.0277H36.9865H36.9454H36.9042H36.8631H36.8219H36.7807H36.7395H36.6984H36.6572H36.6161H36.5749H36.5337H36.4925H36.4514H36.4102H36.369H36.3279H36.2867H36.2455H36.2044H36.1632H36.122H36.0809H36.0397H35.9985H35.9574H35.9162H35.875H35.8338H35.7927H35.7515H35.7104H35.6692H35.628H35.5868H35.5457H35.5045H35.4633H35.4222H35.381H35.3398H35.2987H35.2575H35.2163H35.1752H35.134H35.0928H35.0517H35.0105H34.9693H34.9281H34.887H34.8458H34.8047H34.7635H34.7223H34.6811H34.64H34.5988H34.5577H34.5165H34.4753H34.4341H34.393H34.3518H34.3106H34.2695H34.2283H34.1871H34.146H34.1048H34.0636H34.0225H33.9813H33.9402H33.899H33.8578H33.8166H33.7754H33.7343H33.6931H33.652H33.6108H33.5696H33.5285H33.4873H33.4461H33.405H33.3638H33.3226H33.2815H33.2403H33.1991H33.1579H33.1168H33.0756H33.0345H32.9933H32.9521H32.9109H32.8698H32.8286H32.7874H32.7463H32.7051H32.6639H32.6228H32.5339V9.86656C32.5339 9.57063 32.5646 9.28186 32.6228 9.00305C32.6352 8.94334 32.649 8.88414 32.6639 8.82542C32.6767 8.77517 32.6905 8.72529 32.7051 8.67578C32.7181 8.63156 32.7318 8.58764 32.7463 8.54403C32.7594 8.50418 32.7731 8.46454 32.7874 8.42523C32.8007 8.38877 32.8143 8.35251 32.8286 8.31652C32.8419 8.28291 32.8556 8.24946 32.8698 8.21629C32.8832 8.18498 32.8968 8.1538 32.9109 8.12287C32.9243 8.09349 32.9381 8.06431 32.9521 8.03531C32.9655 8.00762 32.9793 7.98014 32.9933 7.95279C33.0067 7.9265 33.0205 7.90041 33.0345 7.87442C33.0479 7.84938 33.0616 7.8245 33.0756 7.79977C33.0891 7.77578 33.1028 7.75199 33.1168 7.7283C33.1303 7.70533 33.144 7.68245 33.1579 7.65979C33.1715 7.63779 33.1852 7.61597 33.1991 7.59425C33.2126 7.57321 33.2264 7.55237 33.2403 7.5316C33.2538 7.51126 33.2675 7.491 33.2815 7.47091C33.2951 7.45122 33.3086 7.43153 33.3226 7.41208C33.3361 7.39324 33.35 7.37464 33.3638 7.35603C33.3773 7.33774 33.3911 7.31957 33.405 7.30151C33.4186 7.28372 33.4322 7.26586 33.4461 7.24831C33.4597 7.23123 33.4735 7.21443 33.4873 7.19755C33.5009 7.18091 33.5146 7.16441 33.5285 7.14801C33.5421 7.13181 33.5557 7.11561 33.5696 7.09962C33.5832 7.08403 33.597 7.06872 33.6108 7.05333C33.6245 7.03808 33.6381 7.0228 33.652 7.00776C33.6655 6.99302 33.6793 6.97841 33.6931 6.96384C33.7067 6.94947 33.7205 6.93521 33.7343 6.92101C33.7479 6.90701 33.7616 6.89302 33.7754 6.87919C33.7891 6.86561 33.8028 6.85222 33.8166 6.83884C33.8303 6.82552 33.8439 6.81207 33.8578 6.79895C33.8714 6.78611 33.8852 6.77357 33.899 6.7609C33.9126 6.74829 33.9263 6.73565 33.9402 6.72322C33.9538 6.71099 33.9675 6.69899 33.9813 6.68696C33.995 6.675 34.0087 6.66304 34.0225 6.65125C34.0361 6.63962 34.0498 6.62817 34.0636 6.61672C34.0773 6.60536 34.091 6.59405 34.1048 6.58286C34.1185 6.57178 34.1322 6.56084 34.146 6.54996L34.1871 6.5178L34.2283 6.48649C34.242 6.47623 34.2557 6.46603 34.2695 6.45593C34.2831 6.44593 34.2968 6.43597 34.3106 6.42611L34.3518 6.39707C34.3655 6.38755 34.3792 6.37809 34.393 6.36874L34.4341 6.34106L34.4753 6.31412C34.489 6.30527 34.5027 6.29646 34.5165 6.28779L34.5577 6.26224C34.5714 6.2538 34.585 6.24536 34.5988 6.23709C34.6125 6.22889 34.6262 6.22093 34.64 6.2129C34.6537 6.20487 34.6673 6.19677 34.6811 6.18891C34.6948 6.18115 34.7086 6.17366 34.7223 6.16604C34.736 6.15841 34.7497 6.15065 34.7635 6.1432C34.7771 6.13584 34.7909 6.12873 34.8047 6.12151C34.8184 6.11429 34.832 6.10704 34.8458 6.09996C34.8595 6.09294 34.8732 6.08613 34.887 6.07929C34.9007 6.07248 34.9144 6.06563 34.9281 6.05896L34.9693 6.0392C34.983 6.03273 34.9968 6.02643 35.0105 6.02009C35.0242 6.01379 35.0379 6.00738 35.0517 6.00122C35.0653 5.99512 35.0791 5.98929 35.0928 5.98332C35.1066 5.97736 35.1202 5.97129 35.134 5.96547C35.1476 5.95971 35.1615 5.95422 35.1752 5.94859C35.1889 5.943 35.2025 5.93734 35.2163 5.93189L35.2575 5.91579L35.2987 5.90024C35.3124 5.89509 35.3261 5.88987 35.3398 5.88489C35.3535 5.87994 35.3673 5.8753 35.381 5.87049C35.3947 5.86567 35.4084 5.86076 35.4222 5.85608C35.4358 5.85144 35.4496 5.84707 35.4633 5.84256L35.5045 5.82931C35.5182 5.82498 35.5319 5.82061 35.5457 5.8164C35.5593 5.81224 35.5731 5.8083 35.5868 5.80427C35.6006 5.80021 35.6142 5.796 35.628 5.79211C35.6417 5.78824 35.6555 5.78465 35.6692 5.78093C35.6829 5.7772 35.6966 5.77344 35.7104 5.76984L35.7515 5.75927C35.7652 5.75585 35.7789 5.7526 35.7927 5.74931C35.8064 5.74602 35.8201 5.7425 35.8338 5.73935C35.8475 5.73623 35.8613 5.73338 35.875 5.73037L35.9162 5.72146L35.9574 5.71302C35.971 5.71031 35.9848 5.70777 35.9985 5.70519C36.0123 5.70258 36.0259 5.6998 36.0397 5.69733C36.0534 5.69486 36.0672 5.69275 36.0809 5.69045L36.122 5.68367C36.1357 5.6815 36.1495 5.67927 36.1632 5.67724C36.1769 5.6752 36.1906 5.67341 36.2044 5.67151C36.2181 5.66961 36.2318 5.66754 36.2455 5.66578C36.2592 5.66402 36.273 5.66246 36.2867 5.66083L36.3279 5.65616C36.3416 5.65467 36.3553 5.65301 36.369 5.65165C36.3827 5.6503 36.3965 5.64925 36.4102 5.64803L36.4514 5.6444L36.4925 5.64132C36.5062 5.64033 36.52 5.63955 36.5337 5.63871C36.5474 5.63789 36.5611 5.63684 36.5749 5.63613C36.5886 5.63542 36.6023 5.63501 36.6161 5.63444L36.6572 5.63291C36.671 5.63247 36.6846 5.6319 36.6984 5.63159C36.7121 5.63129 36.7258 5.63125 36.7395 5.63105C36.7533 5.63085 36.767 5.63061 36.7807 5.63054L36.7911 5.6304H36.8219H36.8631H36.9042H36.9454H36.9865H37.0277H37.0689H37.1101H37.1512H37.1924H37.2336H37.2747H37.3159H37.3571H37.3982H37.4394H37.4806H37.5217H37.5629H37.6041H37.6452H37.6864H37.7276H37.7688H37.8099H37.8511H37.8922H37.9334H37.9746H38.0158H38.0569H38.0981H38.1392H38.1804H38.2216H38.2628H38.3039H38.3451H38.3863H38.4274H38.4686H38.5098H38.5509H38.5921H38.6333H38.6745H38.7156H38.7568H38.7979H38.8391H38.8803H38.9215H38.9626H39.0038H39.0449H39.0861H39.1273H39.1685H39.2096H39.2508H39.292H39.3331H39.3743H39.4155H39.4566H39.4978H39.539H39.5801H39.6213H39.6625H39.7036H39.7448H39.786H39.8272H39.8683H39.9095H39.9506H39.9918H40.033H40.0742H40.1153H40.1565H40.1976H40.2388H40.28H40.3212H40.3623H40.4035H40.4447H40.4858H40.527H40.5682H40.6093H40.6505H40.6917H40.7328H40.774H40.8152H40.8563H40.8975H40.9387H40.9799H41.021H41.0622H41.1033H41.1445H41.1857H41.2269H41.268H41.3092H41.3504H41.3915H41.4327H41.4739H41.515H41.5562H41.5974H41.6385H41.6797H41.7209H41.762H41.8032H41.8444H41.8856H41.9267H41.9679H42.009H42.0502H42.0914H42.1326H42.1737H42.2149H42.256H42.2972H42.3384H42.3796H42.4207H42.4619H42.5031H42.5443H42.5854H42.6266H42.6677H42.7089H42.7501H42.7913H42.8324H42.8736H42.9147H42.9559H42.9971L43.0383 5.63037Z" fill="white"/>
<path fill-rule="evenodd" clip-rule="evenodd" d="M8.93457 20.3277V9.86652C8.93457 9.57145 8.96501 9.28342 9.02284 9.00535C9.03526 8.94565 9.04905 8.88648 9.06396 8.82772C9.07672 8.7774 9.09047 8.72749 9.10504 8.67791C9.11804 8.63373 9.13175 8.58988 9.14612 8.5463C9.15929 8.50642 9.1729 8.4667 9.18723 8.42733C9.20051 8.3909 9.21409 8.35468 9.22832 8.31873C9.24159 8.28511 9.2553 8.2516 9.26943 8.21839C9.28277 8.18708 9.29645 8.15597 9.31051 8.12507C9.32389 8.09569 9.3376 8.06655 9.35159 8.03754C9.36497 8.00982 9.37875 7.98231 9.39271 7.95493C9.40612 7.92863 9.41983 7.90254 9.43379 7.87659C9.44723 7.85154 9.46095 7.82667 9.47487 7.80194C9.48835 7.77798 9.50203 7.75416 9.51599 7.7305C9.5295 7.70753 9.54311 7.68462 9.55707 7.66192C9.57058 7.63996 9.5843 7.61817 9.59818 7.59649C9.61163 7.57548 9.62545 7.5546 9.63926 7.53383C9.65281 7.5135 9.66646 7.49324 9.68035 7.47314C9.69399 7.45342 9.70751 7.43373 9.72146 7.41425C9.73494 7.39544 9.74876 7.37687 9.76254 7.35827C9.77612 7.33997 9.7898 7.32181 9.80366 7.30375C9.81727 7.28599 9.83085 7.2681 9.84474 7.25055C9.85825 7.2335 9.87207 7.21673 9.88582 7.19989C9.8994 7.18325 9.91308 7.16668 9.92694 7.15025C9.94055 7.13408 9.95416 7.11795 9.96802 7.10199C9.98156 7.08637 9.99535 7.07102 10.0091 7.0556C10.0227 7.04032 10.0364 7.02507 10.0502 7.01003C10.0638 6.99529 10.0775 6.98075 10.0913 6.96621C10.1049 6.95181 10.1186 6.93755 10.1324 6.92335C10.146 6.90935 10.1597 6.89536 10.1735 6.88153C10.1871 6.86794 10.2009 6.85456 10.2146 6.84117C10.2283 6.82786 10.2418 6.81444 10.2557 6.80132C10.2692 6.78848 10.2831 6.77594 10.2968 6.76327C10.3105 6.75063 10.324 6.73796 10.3379 6.72552C10.3515 6.71332 10.3652 6.70136 10.379 6.68933C10.3926 6.67737 10.4063 6.66538 10.4201 6.65358C10.4337 6.64196 10.4474 6.63054 10.4612 6.61909C10.4748 6.60774 10.4885 6.59638 10.5022 6.5852C10.5159 6.57416 10.5296 6.56321 10.5434 6.5523C10.557 6.54149 10.5707 6.53078 10.5844 6.52014C10.5981 6.5096 10.6118 6.4992 10.6256 6.48883C10.6392 6.47856 10.6529 6.46833 10.6666 6.45823L10.7077 6.42848C10.7214 6.41869 10.735 6.40896 10.7488 6.39934C10.7624 6.38982 10.7762 6.3804 10.7899 6.37104C10.8036 6.36173 10.8172 6.35248 10.831 6.34333C10.8446 6.33428 10.8584 6.32537 10.8721 6.31645C10.8858 6.30761 10.8994 6.2987 10.9132 6.28999C10.9268 6.28138 10.9406 6.27298 10.9543 6.26451C10.968 6.25607 10.9816 6.24753 10.9954 6.23926C11.009 6.2311 11.0228 6.22317 11.0365 6.21514C11.0502 6.20711 11.0638 6.19894 11.0776 6.19104C11.0912 6.18328 11.105 6.17586 11.1187 6.16824C11.1324 6.16061 11.146 6.15289 11.1598 6.1454C11.1734 6.13801 11.1871 6.1309 11.2009 6.12368C11.2145 6.11646 11.2282 6.10921 11.2419 6.10213C11.2556 6.09511 11.2693 6.08823 11.2831 6.08136L11.3241 6.06109C11.3378 6.05442 11.3515 6.04774 11.3653 6.04124C11.3789 6.03476 11.3926 6.02849 11.4063 6.02216C11.4201 6.01582 11.4336 6.00935 11.4474 6.00318C11.461 5.99705 11.4748 5.99129 11.4885 5.98532C11.5022 5.97936 11.5159 5.97329 11.5296 5.96747C11.5433 5.96171 11.557 5.95615 11.5707 5.95052L11.6118 5.93385L11.6529 5.91765L11.694 5.90213C11.7077 5.89698 11.7213 5.89166 11.7351 5.88665C11.7487 5.8817 11.7625 5.87709 11.7762 5.87228C11.7899 5.86747 11.8035 5.86259 11.8173 5.85791L11.8584 5.84426L11.8995 5.83101C11.9132 5.82667 11.9268 5.82223 11.9406 5.81803C11.9542 5.81386 11.968 5.8099 11.9816 5.80587C11.9954 5.8018 12.009 5.79766 12.0228 5.79373C12.0364 5.78984 12.0501 5.78621 12.0638 5.78245L12.105 5.77137C12.1186 5.76778 12.1323 5.76412 12.146 5.76066C12.1597 5.75721 12.1734 5.75405 12.1871 5.75073C12.2008 5.74741 12.2145 5.74396 12.2282 5.74077C12.2419 5.73762 12.2556 5.73467 12.2693 5.73166L12.3104 5.72278C12.3241 5.71986 12.3378 5.71692 12.3515 5.71417C12.3652 5.71146 12.3789 5.70895 12.3926 5.70634C12.4063 5.70373 12.42 5.70102 12.4337 5.69855C12.4474 5.69608 12.4611 5.69384 12.4748 5.6915L12.5159 5.68472C12.5296 5.68256 12.5432 5.68022 12.557 5.67815C12.5706 5.67608 12.5844 5.67435 12.5981 5.67242C12.6118 5.67053 12.6254 5.66849 12.6392 5.6667L12.6803 5.66158L12.7214 5.65694C12.7351 5.65541 12.7487 5.65365 12.7625 5.65226C12.7761 5.65087 12.7899 5.64986 12.8035 5.6486L12.8447 5.64501C12.8583 5.64386 12.872 5.64274 12.8857 5.64176C12.8994 5.64077 12.9131 5.63999 12.9269 5.63915C12.9406 5.6383 12.9542 5.63732 12.9679 5.63657C12.9816 5.63583 12.9953 5.63532 13.009 5.63471L13.0501 5.63315C13.0638 5.63268 13.0775 5.63196 13.0912 5.63162C13.1049 5.63129 13.1186 5.63132 13.1323 5.63112C13.146 5.63091 13.1597 5.63068 13.1734 5.63061L13.2145 5.63037H13.2556H13.2967H13.3378H13.3789H13.42H13.4611H13.5022H13.5432H13.5844H13.6254H13.6666H13.7076H13.7487H13.7898H13.8309H13.872H13.9131H13.9542H13.9953H14.0364H14.0775H14.1186H14.1597H14.2008H14.2419H14.283H14.3241H14.3651H14.4063H14.4473H14.4885H14.5295H14.5706H14.6117H14.6528H14.6939H14.735H14.7761H14.8172H14.8583H14.8994H14.9405H14.9816H15.0227H15.0638H15.1048H15.146H15.187H15.2282H15.2692H15.3103H15.3514H15.3925H15.4336H15.4747H15.5158H15.5569H15.598H15.6391H15.6802H15.7213H15.7624H15.8035H15.8446H15.8857H15.9267H15.9679H16.0089H16.05H16.0911H16.1322H16.1733H16.2144H16.2555H16.2966H16.3377H16.3788H16.4199H16.461H16.5021H16.5432H16.5843H16.6254H16.6664H16.7076H16.7486H16.7897H16.8308H16.8719H16.913H16.9541H16.9952H17.0363H17.0774H17.1185H17.1596H17.2007H17.2418H17.2829H17.324H17.3651H17.4062H17.4473H17.4883H17.5295H17.5705H17.6117H17.6527H17.6938H17.7349H17.776H17.8171H17.8582H17.8993H17.9404H17.9815H18.0226H18.0637H18.1048H18.1459H18.187H18.228H18.2692H18.3102H18.3514H18.3924H18.4335H18.4746H18.5157H18.5568H18.5979H18.639H18.6801H18.7212H18.7623H18.8034H18.8445H18.8856H18.9267H18.9678H19.0089H19.0499H19.0911H19.1321H19.1732H19.2143H19.2554H19.2965H19.3376H19.3787H19.4198H19.4547V26.8096C19.4547 26.9938 19.4428 27.1753 19.4198 27.3533C19.4088 27.4391 19.3948 27.5239 19.3787 27.6079C19.3664 27.6718 19.3528 27.7353 19.3376 27.7981C19.3249 27.8511 19.3112 27.9037 19.2965 27.9559C19.2836 28.0016 19.2698 28.0471 19.2554 28.0922C19.2424 28.133 19.2286 28.1736 19.2143 28.2139C19.2011 28.2512 19.1875 28.2883 19.1732 28.3252C19.16 28.3596 19.1463 28.3937 19.1321 28.4277C19.1188 28.4596 19.1051 28.4915 19.0911 28.523C19.0777 28.553 19.064 28.5827 19.0499 28.6123C19.0366 28.6406 19.0229 28.6686 19.0089 28.6965C18.9954 28.7232 18.9817 28.7498 18.9678 28.7763C18.9543 28.8017 18.9406 28.827 18.9267 28.8522C18.9132 28.8765 18.8996 28.9007 18.8856 28.9247C18.8721 28.9479 18.8584 28.971 18.8445 28.9939C18.831 29.016 18.8172 29.038 18.8034 29.0599C18.7899 29.0812 18.7762 29.1025 18.7623 29.1236C18.7487 29.1442 18.7351 29.1648 18.7212 29.1852C18.7077 29.205 18.6939 29.2246 18.6801 29.2441C18.6666 29.2632 18.6529 29.2821 18.639 29.3009C18.6254 29.3195 18.6118 29.338 18.5979 29.3562C18.5844 29.3741 18.5707 29.3919 18.5568 29.4096C18.5433 29.4268 18.5295 29.4439 18.5157 29.4609C18.5021 29.4778 18.4885 29.4946 18.4746 29.5112C18.4611 29.5274 18.4473 29.5435 18.4335 29.5595C18.4199 29.5753 18.4063 29.5909 18.3924 29.6065C18.3788 29.6219 18.3652 29.6374 18.3514 29.6525C18.3378 29.6674 18.324 29.682 18.3102 29.6966C18.2966 29.7112 18.283 29.7257 18.2692 29.7401C18.2556 29.7541 18.2418 29.768 18.228 29.7819C18.2144 29.7956 18.2008 29.8092 18.187 29.8228C18.1734 29.8362 18.1597 29.8495 18.1459 29.8627C18.1323 29.8757 18.1185 29.8885 18.1048 29.9013C18.0911 29.914 18.0775 29.9267 18.0637 29.9393C18.0501 29.9516 18.0363 29.9636 18.0226 29.9757C18.0089 29.9878 17.9953 30 17.9815 30.0119C17.9679 30.0236 17.9541 30.0349 17.9404 30.0465C17.9267 30.058 17.9131 30.0695 17.8993 30.0809C17.8857 30.092 17.8719 30.1029 17.8582 30.1138C17.8445 30.1247 17.8309 30.1357 17.8171 30.1464C17.8035 30.157 17.7897 30.1673 17.776 30.1777C17.7623 30.1881 17.7488 30.1985 17.7349 30.2087C17.7214 30.2188 17.7075 30.2286 17.6938 30.2385C17.6801 30.2484 17.6666 30.2583 17.6527 30.268C17.6392 30.2776 17.6254 30.287 17.6117 30.2963C17.5979 30.3058 17.5844 30.3153 17.5705 30.3245C17.557 30.3336 17.5432 30.3425 17.5295 30.3514C17.5157 30.3603 17.5022 30.3695 17.4883 30.3783C17.4748 30.3869 17.4609 30.3952 17.4473 30.4037C17.4336 30.4122 17.42 30.4209 17.4062 30.4292C17.3925 30.4374 17.3788 30.4454 17.3651 30.4535C17.3514 30.4616 17.3378 30.4697 17.324 30.4776C17.3103 30.4855 17.2966 30.4931 17.2829 30.5008C17.2692 30.5085 17.2555 30.5161 17.2418 30.5236C17.2281 30.5311 17.2145 30.5385 17.2007 30.5457L17.1596 30.5673C17.1459 30.5744 17.1323 30.5815 17.1185 30.5884C17.1049 30.5953 17.0911 30.602 17.0774 30.6087C17.0637 30.6154 17.0501 30.6223 17.0363 30.6289C17.0227 30.6354 17.0089 30.6416 16.9952 30.648C16.9815 30.6543 16.9679 30.6608 16.9541 30.6671C16.9405 30.6732 16.9267 30.6791 16.913 30.6851L16.8719 30.703L16.8308 30.7203C16.8172 30.726 16.8034 30.7315 16.7897 30.737C16.776 30.7425 16.7624 30.7481 16.7486 30.7535C16.735 30.7588 16.7213 30.7638 16.7076 30.769C16.6938 30.7742 16.6802 30.7795 16.6664 30.7845C16.6528 30.7895 16.6391 30.7943 16.6254 30.7992L16.5843 30.8136L16.5432 30.8276C16.5295 30.8321 16.5158 30.8364 16.5021 30.8408C16.4884 30.8452 16.4748 30.8498 16.461 30.8541C16.4474 30.8583 16.4336 30.8622 16.4199 30.8663L16.3788 30.8784L16.3377 30.8901C16.324 30.8938 16.3103 30.8974 16.2966 30.9011C16.2829 30.9048 16.2692 30.9086 16.2555 30.9121C16.2419 30.9156 16.2281 30.9187 16.2144 30.9221C16.2007 30.9254 16.1871 30.9288 16.1733 30.932L16.1322 30.9414L16.0911 30.9503C16.0774 30.9533 16.0638 30.9564 16.05 30.9592C16.0364 30.962 16.0226 30.9644 16.0089 30.967C15.9953 30.9697 15.9816 30.9724 15.9679 30.9749L15.9267 30.9822C15.9131 30.9846 15.8994 30.9867 15.8857 30.989C15.8719 30.9912 15.8583 30.9936 15.8446 30.9957C15.8309 30.9978 15.8172 30.9996 15.8035 31.0016L15.7624 31.0073C15.7487 31.0091 15.735 31.011 15.7213 31.0127C15.7076 31.0144 15.6939 31.0158 15.6802 31.0174C15.6665 31.0189 15.6528 31.0206 15.6391 31.022C15.6254 31.0235 15.6117 31.0247 15.598 31.026L15.5569 31.0296C15.5432 31.0307 15.5295 31.0322 15.5158 31.0332C15.5021 31.0342 15.4884 31.0349 15.4747 31.0358L15.4336 31.0383L15.3925 31.0405C15.3789 31.0411 15.3651 31.0416 15.3514 31.0421C15.3377 31.0426 15.324 31.0432 15.3103 31.0436C15.2967 31.044 15.2829 31.0441 15.2692 31.0444L15.2282 31.0449C15.2155 31.045 15.2028 31.0454 15.19 31.0454H15.146H15.1048H15.0638H15.0227H14.9816H14.9405H14.8994H14.8583H14.8172H14.7761H14.735H14.6939H14.6528H14.6117H14.5706H14.5295H14.4885H14.4473H14.4063H14.3651H14.3241H14.283H14.2419H14.2008H14.1597H14.1186H14.0775H14.0364H13.9953H13.9542H13.9131H13.872H13.8309H13.7898H13.7487H13.7076H13.6666H13.6254H13.5844H13.5432H13.5022H13.4611H13.42H13.3789H13.3378H13.2967H13.2556H13.2145H13.1734H13.1323H13.0912H13.0501H13.009H12.9679H12.9269H12.8857H12.8447H12.8035H12.7625H12.7214H12.6803H12.6392H12.5981H12.557H12.5159H12.4748H12.4337H12.3926H12.3515H12.3104H12.2693H12.2282H12.1871H12.146H12.105H12.0638H12.0228H11.9816H11.9406H11.8995H11.8584H11.8173H11.7762H11.7351H11.694H11.6529H11.6118H11.5707H11.5296H11.4885H11.4474H11.4063H11.3653H11.3241H11.2831H11.2419H11.2009H11.1598H11.1187H11.0776H11.0365H10.9954H10.9543H10.9132H10.8721H10.831H10.7899H10.7488H10.7077H10.6666H10.6256H10.5844H10.5434H10.5022H10.4612H10.4201H10.379H10.3379H10.2968H10.2557H10.2146H10.1735H10.1324H10.0913H10.0502H10.0091H9.96802H9.92694H9.88582H9.84474H9.80366H9.76254H9.72146H9.68035H9.63926H9.59818H9.55707H9.51599H9.47487H9.43379H9.39271H9.35159H9.31051H9.26943H9.22832H9.18723H9.14612H9.10504H9.06396H9.02284H8.93457V22.1186C8.93457 22.1186 8.96494 22.1269 9.02284 22.1414L9.06396 22.1516L9.10504 22.1615L9.14612 22.1713L9.18723 22.181L9.22832 22.1905L9.26943 22.1998L9.31051 22.209L9.35159 22.2181L9.39271 22.2271L9.43379 22.2359L9.47487 22.2446L9.51599 22.2532L9.55707 22.2617L9.59818 22.2701L9.63926 22.2783L9.68035 22.2865L9.72146 22.2946L9.76254 22.3025L9.80366 22.3104L9.84474 22.3182L9.88582 22.3258L9.92694 22.3333L9.96802 22.3408L10.0091 22.3481L10.0502 22.3554L10.0913 22.3626L10.1324 22.3697L10.1735 22.3766L10.2146 22.3835L10.2557 22.3903L10.2968 22.397L10.3379 22.4036L10.379 22.4101L10.4201 22.4165L10.4612 22.4229L10.5022 22.4291L10.5434 22.4353L10.5844 22.4413L10.6256 22.4473L10.6666 22.4532L10.7077 22.459L10.7488 22.4647L10.7899 22.4703L10.831 22.4759L10.8721 22.4813L10.9132 22.4866L10.9543 22.4919L10.9954 22.4971L11.0365 22.5022L11.0776 22.5072L11.1187 22.5121L11.1598 22.5169L11.2009 22.5217L11.2419 22.5263L11.2831 22.5309L11.3241 22.5354L11.3653 22.5397L11.4063 22.5441L11.4474 22.5482L11.4885 22.5524L11.5296 22.5564L11.5707 22.5604L11.6118 22.5643L11.6529 22.568L11.694 22.5718L11.7351 22.5753L11.7762 22.5788L11.8173 22.5822L11.8584 22.5856L11.8995 22.5888L11.9406 22.5919L11.9816 22.595L12.0228 22.598L12.0638 22.6009L12.105 22.6037L12.146 22.6064L12.1871 22.609L12.2282 22.6115L12.2693 22.6139L12.3104 22.6164L12.3515 22.6186L12.3926 22.6207L12.4337 22.6228L12.4748 22.6248L12.5159 22.6267L12.557 22.6284L12.5981 22.6301L12.6392 22.6318L12.6803 22.6333L12.7214 22.6347L12.7625 22.6361L12.8035 22.6373L12.8447 22.6385L12.8857 22.6395L12.9269 22.6404L12.9679 22.6414L13.009 22.642L13.0501 22.6427L13.0912 22.6433L13.1323 22.6437L13.1734 22.6442L13.2145 22.6445L13.2556 22.6446L13.2967 22.6447L13.3378 22.6446L13.3789 22.6444L13.42 22.6441L13.4611 22.6439L13.5022 22.6437L13.5432 22.6429L13.5844 22.6422L13.6254 22.6414L13.6666 22.6407L13.7076 22.6397L13.7487 22.6384L13.7898 22.6371L13.8309 22.6359L13.872 22.6345L13.9131 22.6327L13.9542 22.6309L13.9953 22.6291L14.0364 22.6273L14.0775 22.625L14.1186 22.6227L14.1597 22.6203L14.2008 22.6179L14.2419 22.6152L14.283 22.6123L14.3241 22.6094L14.3651 22.6064L14.4063 22.6032L14.4473 22.5996L14.4885 22.5961L14.5295 22.5926L14.5706 22.5887L14.6117 22.5846L14.6528 22.5804L14.6939 22.5763L14.735 22.5717L14.7761 22.5669L14.8172 22.5621L14.8583 22.5574L14.8994 22.552L14.9405 22.5466L14.9816 22.5411L15.0227 22.5356C15.0365 22.5336 15.05 22.5314 15.0638 22.5294L15.1048 22.5233L15.146 22.5171L15.187 22.5107C15.2009 22.5085 15.2144 22.5061 15.2282 22.5038L15.2692 22.4969C15.2829 22.4946 15.2968 22.4924 15.3103 22.4901C15.3242 22.4876 15.3377 22.485 15.3514 22.4825L15.3925 22.4749L15.4336 22.4673L15.4747 22.4593C15.4885 22.4565 15.5021 22.4536 15.5158 22.4509L15.5569 22.4424L15.598 22.4339C15.6119 22.431 15.6253 22.4278 15.6391 22.4247L15.6802 22.4155C15.6938 22.4124 15.7078 22.4095 15.7213 22.4063C15.7352 22.4031 15.7486 22.3997 15.7624 22.3964L15.8035 22.3863C15.8171 22.3829 15.831 22.3797 15.8446 22.3763C15.8584 22.3728 15.872 22.3691 15.8857 22.3656L15.9267 22.3547C15.9404 22.351 15.9543 22.3474 15.9679 22.3437C15.9817 22.3399 15.9953 22.336 16.0089 22.3322L16.05 22.3203C16.0637 22.3164 16.0776 22.3125 16.0911 22.3085L16.1322 22.296L16.1733 22.2832C16.187 22.2789 16.2009 22.2747 16.2144 22.2703L16.2555 22.2568L16.2966 22.2429C16.3103 22.2383 16.3242 22.2338 16.3377 22.2291C16.3516 22.2243 16.3651 22.2192 16.3788 22.2143L16.4199 22.1994C16.4336 22.1944 16.4474 22.1894 16.461 22.1843C16.4749 22.1791 16.4884 22.1737 16.5021 22.1684C16.5158 22.163 16.5296 22.1577 16.5432 22.1524L16.5843 22.1358L16.6254 22.1186C16.639 22.1129 16.653 22.1073 16.6664 22.1015C16.6804 22.0955 16.6938 22.0892 16.7076 22.0831L16.7486 22.0648L16.7897 22.0458C16.8035 22.0393 16.8172 22.0327 16.8308 22.0262C16.8445 22.0196 16.8584 22.0131 16.8719 22.0064C16.8858 21.9995 16.8993 21.9924 16.913 21.9854C16.9268 21.9784 16.9406 21.9715 16.9541 21.9644C16.968 21.9572 16.9816 21.9498 16.9952 21.9424C17.009 21.9349 17.0227 21.9275 17.0363 21.92C17.0501 21.9123 17.0638 21.9046 17.0774 21.8968C17.0913 21.8889 17.1049 21.8809 17.1185 21.8729C17.1323 21.8648 17.146 21.8567 17.1596 21.8485C17.1735 21.84 17.1871 21.8315 17.2007 21.823C17.2145 21.8144 17.2283 21.8058 17.2418 21.7971C17.2557 21.7882 17.2692 21.779 17.2829 21.7699C17.2966 21.7607 17.3105 21.7516 17.324 21.7423C17.3379 21.7328 17.3514 21.7231 17.3651 21.7134C17.3788 21.7036 17.3927 21.6938 17.4062 21.6839C17.4201 21.6737 17.4337 21.6634 17.4473 21.653C17.4611 21.6426 17.4748 21.632 17.4883 21.6214C17.5022 21.6106 17.5159 21.5995 17.5295 21.5885C17.5433 21.5772 17.557 21.5658 17.5705 21.5544C17.5844 21.5427 17.5982 21.5311 17.6117 21.5193C17.6256 21.5071 17.6391 21.4947 17.6527 21.4823C17.6665 21.4698 17.6804 21.4573 17.6938 21.4446C17.7078 21.4314 17.7214 21.4181 17.7349 21.4047C17.7488 21.391 17.7625 21.3772 17.776 21.3633C17.7898 21.3492 17.8037 21.335 17.8171 21.3207C17.8311 21.3057 17.8446 21.2905 17.8582 21.2753C17.8722 21.2597 17.8858 21.2439 17.8993 21.2281C17.9132 21.2118 17.927 21.1955 17.9404 21.1789C17.9543 21.1617 17.9681 21.1446 17.9815 21.1272C17.9955 21.109 18.0091 21.0906 18.0226 21.0722C18.0366 21.053 18.0502 21.0337 18.0637 21.0142C18.0777 20.994 18.0914 20.9735 18.1048 20.953C18.1188 20.9314 18.1325 20.9097 18.1459 20.8878C18.1599 20.8647 18.1737 20.8415 18.187 20.818C18.2011 20.7932 18.2148 20.7682 18.228 20.743C18.2422 20.716 18.2559 20.6889 18.2692 20.6615C18.2834 20.6321 18.2971 20.6024 18.3102 20.5726C18.3245 20.5401 18.3383 20.5074 18.3514 20.4745C18.3658 20.4381 18.3795 20.4014 18.3924 20.3645C18.4071 20.3225 18.4207 20.2801 18.4335 20.2374C18.4485 20.1875 18.4622 20.137 18.4746 20.0861C18.4901 20.0229 18.5039 19.959 18.5157 19.8943C18.5333 19.7981 18.5469 19.7004 18.5568 19.6014C18.5706 19.4633 18.5773 19.3228 18.5773 19.18V14.2653H18.5157H18.4746H18.4335H18.3924H18.3514H18.3102H18.2692H18.228H18.187H18.1459H18.1048H18.0637H18.0226H17.9815H17.9404H17.8993H17.8582H17.8171H17.776H17.7349H17.6938H17.6527H17.6117H17.5705H17.5295H17.4883H17.4473H17.4062H17.3651H17.324H17.2829H17.2418H17.2007H17.1596H17.1185H17.0774H17.0363H16.9952H16.9541H16.913H16.8719H16.8308H16.7897H16.7486H16.7076H16.6664H16.6254H16.5843H16.5432H16.5021H16.461H16.4199H16.3788H16.3377H16.2966H16.2555H16.2144H16.1733H16.1322H16.0911H16.05H16.0089H15.9679H15.9267H15.8857H15.8446H15.8035H15.7624H15.7213H15.6802H15.6391H15.598H15.5569H15.5158H15.4747H15.4336H15.3925H15.3514H15.3103H15.2692H15.2282H15.187H15.146H15.1048H15.0638H15.0227H14.9816H14.9405L14.9093 19.18C14.9093 19.2569 14.906 19.3326 14.8994 19.4069C14.891 19.5014 14.8772 19.5936 14.8583 19.6833C14.8466 19.7387 14.8329 19.793 14.8172 19.8464C14.8047 19.8889 14.7911 19.9307 14.7761 19.9718C14.7633 20.0068 14.7496 20.0412 14.735 20.0752C14.722 20.1055 14.7083 20.1353 14.6939 20.1647C14.6808 20.1915 14.6671 20.2179 14.6528 20.2439C14.6396 20.2678 14.6259 20.2913 14.6117 20.3145C14.5985 20.3364 14.5848 20.358 14.5706 20.3792C14.5573 20.3991 14.5436 20.4188 14.5295 20.4382C14.5162 20.4566 14.5026 20.475 14.4885 20.493C14.4751 20.5101 14.4613 20.5268 14.4473 20.5434C14.4339 20.5593 14.4203 20.5749 14.4063 20.5904C14.3928 20.6053 14.3791 20.6201 14.3651 20.6345C14.3517 20.6485 14.338 20.6623 14.3241 20.6759C14.3106 20.689 14.2969 20.702 14.283 20.7148C14.2695 20.7271 14.2558 20.7392 14.2419 20.7512C14.2284 20.7628 14.2147 20.7743 14.2008 20.7856C14.1873 20.7966 14.1735 20.8074 14.1597 20.8181C14.1462 20.8284 14.1324 20.8387 14.1186 20.8488C14.105 20.8586 14.0914 20.8683 14.0775 20.8778C14.064 20.8871 14.0503 20.8963 14.0364 20.9053C14.0228 20.9141 14.0092 20.9228 13.9953 20.9314C13.9818 20.9397 13.9681 20.9479 13.9542 20.956C13.9407 20.9638 13.9269 20.9716 13.9131 20.9792C13.8996 20.9867 13.8859 20.994 13.872 21.0013C13.8585 21.0084 13.8448 21.0153 13.8309 21.0222C13.8173 21.0289 13.8037 21.0355 13.7898 21.042C13.7762 21.0484 13.7626 21.0547 13.7487 21.0608C13.7351 21.0669 13.7215 21.0728 13.7076 21.0786C13.6941 21.0843 13.6803 21.0898 13.6666 21.0953C13.653 21.1006 13.6392 21.1059 13.6254 21.111C13.6118 21.1161 13.5982 21.1211 13.5844 21.126C13.5707 21.1308 13.5571 21.1356 13.5432 21.1402C13.5297 21.1447 13.516 21.1491 13.5022 21.1534C13.4886 21.1576 13.4748 21.1617 13.4611 21.1657C13.4475 21.1697 13.4338 21.1736 13.42 21.1774C13.4063 21.1811 13.3927 21.1849 13.3789 21.1884C13.3653 21.1919 13.3516 21.1953 13.3378 21.1985C13.3242 21.2018 13.3105 21.2049 13.2967 21.208C13.2831 21.211 13.2694 21.214 13.2556 21.2168C13.242 21.2196 13.2283 21.2224 13.2145 21.225C13.2009 21.2275 13.1872 21.23 13.1734 21.2324C13.1598 21.2347 13.1461 21.2371 13.1323 21.2393L13.0912 21.2455C13.0776 21.2475 13.0639 21.2493 13.0501 21.2511C13.0365 21.2529 13.0228 21.2547 13.009 21.2562L12.9679 21.2608C12.9543 21.2622 12.9406 21.2634 12.9269 21.2647C12.9132 21.2659 12.8995 21.2671 12.8857 21.2682C12.8721 21.2692 12.8584 21.2701 12.8447 21.271C12.831 21.2719 12.8173 21.2726 12.8035 21.2734C12.7899 21.2741 12.7762 21.2748 12.7625 21.2753C12.7489 21.2759 12.7351 21.2762 12.7214 21.2766L12.6803 21.2775C12.6667 21.2778 12.6529 21.2778 12.6392 21.2779L12.5981 21.278L12.557 21.2777L12.5159 21.2771L12.4748 21.2763L12.4337 21.2752L12.3926 21.2739L12.3515 21.2722L12.3104 21.2703L12.2693 21.2682L12.2282 21.2658L12.1871 21.2632L12.146 21.2603L12.105 21.2571L12.0638 21.2537L12.0228 21.25L11.9816 21.2461L11.9406 21.2419L11.8995 21.2375L11.8584 21.2329L11.8173 21.2279L11.7762 21.2227L11.7351 21.2174L11.694 21.2117L11.6529 21.2058L11.6118 21.1997L11.5707 21.1933L11.5296 21.1866L11.4885 21.1798L11.4474 21.1727L11.4063 21.1653L11.3653 21.1578L11.3241 21.15L11.2831 21.142L11.2419 21.1337L11.2009 21.1251L11.1598 21.1164L11.1187 21.1075L11.0776 21.0982L11.0365 21.0889L10.9954 21.0792L10.9543 21.0693L10.9132 21.0592L10.8721 21.0489L10.831 21.0383L10.7899 21.0275L10.7488 21.0166L10.7077 21.0054L10.6666 20.9939L10.6256 20.9823L10.5844 20.9705L10.5434 20.9583L10.5022 20.946L10.4612 20.9336L10.4201 20.9208L10.379 20.9079L10.3379 20.8948L10.2968 20.8814L10.2557 20.8679L10.2146 20.8541L10.1735 20.8401L10.1324 20.826L10.0913 20.8115L10.0502 20.797L10.0091 20.7823L9.96802 20.7672L9.92694 20.752L9.88582 20.7366L9.84474 20.7211L9.80366 20.7053L9.76254 20.6893L9.72146 20.6732L9.68035 20.6568L9.63926 20.6403L9.59818 20.6235L9.55707 20.6066L9.51599 20.5895L9.47487 20.5722L9.43379 20.5547L9.39271 20.537L9.35159 20.5191L9.31051 20.5011L9.26943 20.4829L9.22832 20.4645L9.18723 20.4459L9.14612 20.4271L9.10504 20.4082L9.06396 20.389L9.02284 20.3697C8.99339 20.3558 8.96398 20.3418 8.93457 20.3277Z" fill="white"/>
<path fill-rule="evenodd" clip-rule="evenodd" d="M20.8229 15.3392C20.7929 15.3633 20.7634 15.3875 20.7346 15.4121V9.86652C20.7346 9.57162 20.7651 9.28376 20.8229 9.00579C20.8353 8.94612 20.849 8.88699 20.8639 8.82827C20.8767 8.77788 20.8905 8.7279 20.9051 8.67825C20.9181 8.63403 20.9318 8.59012 20.9462 8.54651C20.9593 8.50666 20.973 8.46701 20.9872 8.4277C21.0005 8.39128 21.0141 8.35502 21.0284 8.31907C21.0417 8.28545 21.0553 8.25201 21.0694 8.2188C21.0828 8.18749 21.0965 8.15638 21.1105 8.12544C21.1239 8.09606 21.1377 8.06689 21.1516 8.03788C21.165 8.01016 21.1788 7.98272 21.1927 7.95534C21.2061 7.92904 21.2199 7.90295 21.2338 7.87696C21.2473 7.85192 21.261 7.82704 21.2749 7.80231C21.2884 7.77835 21.3021 7.7545 21.316 7.73084C21.3295 7.70787 21.3432 7.685 21.3571 7.66229C21.3706 7.64037 21.3843 7.61858 21.3982 7.59693C21.4117 7.57585 21.4255 7.55501 21.4393 7.5342C21.4529 7.51384 21.4665 7.49361 21.4804 7.47352C21.494 7.45379 21.5076 7.43407 21.5215 7.41462C21.535 7.39578 21.5488 7.37725 21.5626 7.35868C21.5762 7.34038 21.5899 7.32218 21.6037 7.30412C21.6173 7.28633 21.6309 7.26851 21.6448 7.25095C21.6583 7.23391 21.6722 7.2171 21.6859 7.20026C21.6995 7.18362 21.7132 7.16705 21.727 7.15065C21.7406 7.13446 21.7542 7.11833 21.7681 7.10237C21.7816 7.08678 21.7954 7.07139 21.8092 7.05601C21.8228 7.04076 21.8364 7.02544 21.8503 7.01037C21.8638 6.99563 21.8776 6.98105 21.8913 6.96652C21.9049 6.95215 21.9186 6.93788 21.9324 6.92369C21.9461 6.90969 21.9597 6.8957 21.9735 6.88187C21.9871 6.86832 22.0009 6.85493 22.0146 6.84155C22.0283 6.82823 22.0419 6.81481 22.0557 6.80166C22.0693 6.78882 22.0831 6.77628 22.0968 6.76361C22.1105 6.75097 22.1241 6.7383 22.1379 6.72586C22.1515 6.71366 22.1653 6.70167 22.179 6.68964C22.1927 6.67764 22.2063 6.66568 22.2201 6.65389C22.2337 6.64227 22.2475 6.63085 22.2612 6.61939C22.2749 6.60804 22.2885 6.59669 22.3023 6.58547C22.3159 6.57443 22.3297 6.56348 22.3434 6.5526C22.3571 6.54179 22.3707 6.53105 22.3845 6.52041C22.3981 6.50991 22.4119 6.49951 22.4256 6.48914C22.4393 6.47887 22.4529 6.46864 22.4667 6.45854C22.4803 6.44851 22.4941 6.43861 22.5078 6.42875C22.5214 6.41899 22.5351 6.40923 22.5489 6.39961C22.5625 6.39009 22.5762 6.3807 22.59 6.37132C22.6036 6.362 22.6173 6.35271 22.6311 6.34356C22.6447 6.33452 22.6584 6.3256 22.6722 6.31669C22.6858 6.30781 22.6995 6.29894 22.7133 6.29023C22.7269 6.28162 22.7406 6.27322 22.7544 6.26475C22.7681 6.25631 22.7817 6.24777 22.7955 6.2395C22.8091 6.2313 22.8229 6.22337 22.8366 6.21534C22.8503 6.20731 22.8639 6.19911 22.8777 6.19125C22.8912 6.18349 22.9051 6.17603 22.9188 6.16841C22.9325 6.16078 22.9461 6.15309 22.9599 6.14564C22.9735 6.13825 22.9872 6.13113 23.0009 6.12388C23.0146 6.11666 23.0283 6.10941 23.0421 6.10233L23.0831 6.08156L23.1243 6.06126C23.1379 6.05462 23.1516 6.04791 23.1653 6.0414C23.179 6.03493 23.1927 6.02866 23.2065 6.02233C23.2202 6.01602 23.2338 6.00952 23.2475 6.00335C23.2612 5.99722 23.2749 5.99146 23.2887 5.98549C23.3023 5.97953 23.316 5.97346 23.3297 5.96764C23.3434 5.96187 23.3571 5.95628 23.3708 5.95066L23.4119 5.93399C23.4256 5.92853 23.4393 5.92308 23.453 5.91776C23.4667 5.91247 23.4804 5.90739 23.4941 5.90224C23.5078 5.89709 23.5214 5.89177 23.5352 5.88675C23.5488 5.8818 23.5626 5.87719 23.5763 5.87238C23.59 5.86757 23.6037 5.86269 23.6174 5.85802C23.6311 5.85334 23.6448 5.84887 23.6585 5.84436L23.6996 5.83111C23.7133 5.82677 23.727 5.82233 23.7407 5.8181C23.7543 5.81393 23.7681 5.81 23.7818 5.80597C23.7955 5.8019 23.8092 5.79773 23.8229 5.7938C23.8366 5.7899 23.8503 5.78628 23.864 5.78252L23.9051 5.77144C23.9188 5.76785 23.9324 5.76419 23.9462 5.76073C23.9598 5.75731 23.9736 5.75409 23.9873 5.75077C24.001 5.74745 24.0146 5.74399 24.0284 5.7408C24.042 5.73765 24.0558 5.73471 24.0695 5.73169L24.1106 5.72281C24.1243 5.71993 24.1379 5.71695 24.1517 5.7142C24.1653 5.71146 24.1791 5.70899 24.1928 5.70638C24.2065 5.70377 24.2201 5.70102 24.2339 5.69855L24.275 5.6915L24.3161 5.68476C24.3298 5.68256 24.3434 5.68022 24.3572 5.67815C24.3708 5.67608 24.3846 5.67435 24.3983 5.67242C24.4119 5.67053 24.4256 5.66853 24.4393 5.66673L24.4805 5.66161L24.5215 5.65694C24.5353 5.65541 24.5489 5.65365 24.5626 5.65226C24.5763 5.65087 24.59 5.64986 24.6037 5.6486L24.6448 5.64501C24.6585 5.64386 24.6722 5.64274 24.6859 5.64176C24.6996 5.64077 24.7133 5.63999 24.727 5.63915C24.7407 5.6383 24.7544 5.63732 24.7681 5.63657C24.7818 5.63583 24.7955 5.63532 24.8092 5.63471L24.8503 5.63315C24.864 5.63268 24.8777 5.63196 24.8914 5.63162C24.9051 5.63129 24.9188 5.63132 24.9325 5.63112C24.9462 5.63091 24.9599 5.63068 24.9736 5.63061L24.9918 5.63037H25.0147H25.0558H25.0969H25.138H25.1791H25.2202H25.2613H25.3024H25.3435H25.3846H25.4257H25.4668H25.5079H25.549H25.5901H25.6312H25.6723H25.7134H25.7544H25.7955H25.8366H25.8777H25.9188H25.9599H26.001H26.0422H26.0832H26.1244H26.1654H26.2065H26.2476H26.2887H26.3298H26.3709H26.412H26.4531H26.4942H26.5353H26.5764H26.6175H26.6586H26.6997H26.7408H26.7819H26.823H26.8641H26.9052H26.9462H26.9874H27.0284H27.0696H27.1106H27.1518H27.1928H27.2339H27.275H27.3162H27.3572H27.3983H27.4394H27.4805H27.5216H27.5627H27.6038H27.6449H27.686H27.7271H27.7682H27.8093H27.8504H27.8915H27.9326H27.9737H28.0148H28.0559H28.097H28.1381H28.1792H28.2203H28.2614H28.3024H28.3436H28.3846H28.4258H28.4668H28.508H28.549H28.5901H28.6312H28.6723H28.7134H28.7545H28.7956H28.8367H28.8778H28.9189H28.96H29.0011H29.0422H29.0833H29.1244H29.1655H29.2066H29.2477H29.2888H29.3299H29.371H29.4121H29.4532H29.4943H29.5354H29.5765H29.6176H29.6587H29.6998H29.7408H29.7819H29.823H29.8641H29.9053H29.9463H29.9875H30.0285H30.0696H30.1107H30.1518H30.1929H30.234H30.2751H30.3162H30.3573H30.3984H30.4395H30.4806H30.5217H30.5628H30.6039H30.645H30.6861H30.7272H30.7683H30.8094H30.8505H30.8916H30.9327H30.9738H31.0149H31.0559H31.097H31.1381H31.1793H31.2203H31.2552V26.8096C31.2552 26.9937 31.2433 27.1751 31.2203 27.3531C31.2093 27.4388 31.1954 27.5235 31.1793 27.6075C31.167 27.6715 31.1533 27.735 31.1381 27.7978C31.1254 27.8508 31.1118 27.9034 31.097 27.9556C31.0841 28.0014 31.0704 28.0468 31.0559 28.092C31.0429 28.1328 31.0291 28.1734 31.0149 28.2137C31.0017 28.251 30.9879 28.2881 30.9738 28.3249C30.9605 28.3593 30.9468 28.3934 30.9327 28.4274C30.9193 28.4594 30.9056 28.4912 30.8916 28.5228C30.8782 28.5527 30.8645 28.5824 30.8505 28.612C30.8371 28.6403 30.8234 28.6684 30.8094 28.6963C30.7959 28.723 30.7822 28.7496 30.7683 28.776C30.7548 28.8015 30.7411 28.8268 30.7272 28.852C30.7136 28.8763 30.7001 28.9006 30.6861 28.9246C30.6726 28.9477 30.6589 28.9707 30.645 28.9936C30.6315 29.0158 30.6178 29.0377 30.6039 29.0597C30.5904 29.081 30.5767 29.1022 30.5628 29.1233C30.5492 29.144 30.5356 29.1646 30.5217 29.185C30.5082 29.2047 30.4944 29.2243 30.4806 29.2439C30.4671 29.2629 30.4533 29.2818 30.4395 29.3007C30.4259 29.3192 30.4123 29.3377 30.3984 29.356C30.3849 29.3739 30.3711 29.3916 30.3573 29.4092C30.3438 29.4265 30.33 29.4436 30.3162 29.4607C30.3026 29.4775 30.289 29.4943 30.2751 29.511C30.2616 29.5272 30.2478 29.5432 30.234 29.5593C30.2204 29.5751 30.2068 29.5907 30.1929 29.6063C30.1793 29.6217 30.1657 29.6371 30.1518 29.6523C30.1383 29.6672 30.1245 29.6817 30.1107 29.6964C30.0971 29.7109 30.0835 29.7255 30.0696 29.7399C30.056 29.754 30.0423 29.7678 30.0285 29.7817C30.0149 29.7954 30.0013 29.809 29.9875 29.8226C29.9738 29.8359 29.9602 29.8492 29.9463 29.8624C29.9328 29.8754 29.919 29.8882 29.9053 29.901C29.8916 29.9137 29.878 29.9265 29.8641 29.9391C29.8506 29.9514 29.8368 29.9634 29.823 29.9756C29.8093 29.9877 29.7958 29.9999 29.7819 30.0118C29.7684 30.0235 29.7545 30.0348 29.7408 30.0463C29.7272 30.0578 29.7136 30.0694 29.6998 30.0807C29.6862 30.0918 29.6724 30.1026 29.6587 30.1136C29.645 30.1245 29.6314 30.1355 29.6176 30.1462C29.604 30.1568 29.5902 30.1671 29.5765 30.1775C29.5628 30.1879 29.5492 30.1983 29.5354 30.2085C29.5218 30.2186 29.508 30.2284 29.4943 30.2383C29.4806 30.2482 29.467 30.2582 29.4532 30.2679C29.4396 30.2774 29.4258 30.2868 29.4121 30.2962C29.3984 30.3056 29.3848 30.3151 29.371 30.3244C29.3574 30.3334 29.3436 30.3423 29.3299 30.3512C29.3162 30.3602 29.3026 30.3693 29.2888 30.3781C29.2752 30.3867 29.2614 30.3951 29.2477 30.4036C29.234 30.4121 29.2204 30.4207 29.2066 30.429C29.193 30.4373 29.1792 30.4452 29.1655 30.4533C29.1518 30.4614 29.1382 30.4695 29.1244 30.4775C29.1108 30.4853 29.097 30.493 29.0833 30.5007L29.0422 30.5235L29.0011 30.5456L28.96 30.5671C28.9463 30.5742 28.9327 30.5813 28.9189 30.5883C28.9053 30.5951 28.8916 30.6018 28.8778 30.6086C28.8641 30.6153 28.8505 30.6222 28.8367 30.6288C28.8231 30.6353 28.8093 30.6415 28.7956 30.6478C28.7819 30.6542 28.7683 30.6607 28.7545 30.6669C28.7409 30.6731 28.7271 30.679 28.7134 30.685L28.6723 30.7029L28.6312 30.7202L28.5901 30.7369C28.5764 30.7424 28.5628 30.748 28.549 30.7534C28.5354 30.7587 28.5216 30.7637 28.508 30.7689C28.4942 30.7741 28.4806 30.7794 28.4668 30.7844C28.4532 30.7894 28.4395 30.7942 28.4258 30.7991L28.3846 30.8135L28.3436 30.8275C28.3299 30.832 28.3162 30.8363 28.3024 30.8407C28.2887 30.8451 28.2751 30.8497 28.2614 30.854C28.2477 30.8582 28.234 30.8621 28.2203 30.8662L28.1792 30.8783L28.1381 30.89C28.1244 30.8937 28.1107 30.8974 28.097 30.901C28.0833 30.9047 28.0697 30.9085 28.0559 30.912C28.0422 30.9155 28.0285 30.9187 28.0148 30.922C28.0011 30.9254 27.9874 30.9288 27.9737 30.932L27.9326 30.9414L27.8915 30.9503C27.8778 30.9532 27.8642 30.9563 27.8504 30.9591C27.8368 30.9619 27.823 30.9644 27.8093 30.967L27.7682 30.9748L27.7271 30.9822C27.7135 30.9845 27.6997 30.9867 27.686 30.9889C27.6723 30.9912 27.6587 30.9936 27.6449 30.9957C27.6313 30.9978 27.6175 30.9996 27.6038 31.0015L27.5627 31.0073C27.549 31.0091 27.5353 31.011 27.5216 31.0127C27.508 31.0143 27.4942 31.0158 27.4805 31.0173C27.4668 31.0189 27.4532 31.0206 27.4394 31.022C27.4258 31.0234 27.4121 31.0246 27.3983 31.0259L27.3572 31.0296C27.3435 31.0307 27.3299 31.0321 27.3162 31.0332C27.3025 31.0342 27.2888 31.0348 27.275 31.0357L27.2339 31.0383L27.1928 31.0405C27.1792 31.0411 27.1654 31.0415 27.1518 31.042C27.138 31.0425 27.1244 31.0432 27.1106 31.0436C27.097 31.044 27.0833 31.0441 27.0696 31.0444L27.0284 31.0449C27.0157 31.045 27.0029 31.0454 26.9901 31.0454H26.9874H26.9462H26.9052H26.8641H26.823H26.7819H26.7408H26.6997H26.6586H26.6175H26.5764H26.5353H26.4942H26.4531H26.412H26.3709H26.3298H26.2887H26.2476H26.2065H26.1654H26.1244H26.0832H26.0422H26.001H25.9599H25.9188H25.8777H25.8366H25.7955H25.7544H25.7134H25.6723H25.6312H25.5901H25.549H25.5079H25.4668H25.4257H25.3846H25.3435H25.3024H25.2613H25.2202H25.1791H25.138H25.0969H25.0558H25.0147H24.9736H24.9325H24.8914H24.8503H24.8092H24.7681H24.727H24.6859H24.6448H24.6037H24.5626H24.5215H24.4805H24.4393H24.3983H24.3572H24.3161H24.275H24.2339H24.1928H24.1517H24.1106H24.0695H24.0284H23.9873H23.9462H23.9051H23.864H23.8229H23.7818H23.7407H23.6996H23.6585H23.6174H23.5763H23.5352H23.4941H23.453H23.4119H23.3708H23.3297H23.2887H23.2475H23.2065H23.1653H23.1243H23.0831H23.0421H23.0009H22.9599H22.9188H22.8777H22.8366H22.7955H22.7544H22.7133H22.6722H22.6311H22.59H22.5489H22.5078H22.4667H22.4256H22.3845H22.3434H22.3023H22.2612H22.2201H22.179H22.1379H22.0968H22.0557H22.0146H21.9735H21.9324H21.8913H21.8503H21.8092H21.7681H21.727H21.6859H21.6448H21.6037H21.5626H21.5215H21.4804H21.4393H21.3982H21.3571H21.316H21.2749H21.2338H21.1927H21.1516H21.1105H21.0694H21.0284H20.9872H20.9462H20.9051H20.8639H20.8229H20.7346V21.2654C20.7634 21.2899 20.7929 21.3141 20.8229 21.3382C20.8364 21.3491 20.8502 21.3599 20.8639 21.3707C20.8776 21.3814 20.8912 21.392 20.9051 21.4025C20.9187 21.4129 20.9323 21.4232 20.9462 21.4335C20.9597 21.4436 20.9735 21.4535 20.9872 21.4635C21.0008 21.4733 21.0146 21.4831 21.0284 21.4928C21.042 21.5024 21.0556 21.512 21.0694 21.5215L21.1105 21.5495C21.1241 21.5586 21.1379 21.5677 21.1516 21.5767L21.1927 21.6033C21.2063 21.612 21.22 21.6208 21.2338 21.6294C21.2474 21.6379 21.2612 21.6463 21.2749 21.6547L21.316 21.6795C21.3297 21.6876 21.3433 21.6958 21.3571 21.7038C21.3707 21.7117 21.3844 21.7195 21.3982 21.7274L21.4393 21.7506L21.4804 21.7732L21.5215 21.7953C21.5352 21.8025 21.5488 21.8098 21.5626 21.817C21.5762 21.8241 21.59 21.8311 21.6037 21.838L21.6448 21.8588L21.6859 21.8791L21.727 21.8988C21.7407 21.9053 21.7543 21.9119 21.7681 21.9183L21.8092 21.9371L21.8503 21.9558L21.8913 21.9739L21.9324 21.9917L21.9735 22.0091L22.0146 22.0261L22.0557 22.0429L22.0968 22.0591L22.1379 22.0753L22.179 22.0908C22.1927 22.0959 22.2063 22.1012 22.2201 22.1062L22.2612 22.1211C22.2749 22.1261 22.2885 22.1311 22.3023 22.136C22.3159 22.1408 22.3297 22.1454 22.3434 22.1502L22.3845 22.1644L22.4256 22.1781C22.4393 22.1826 22.4529 22.1873 22.4667 22.1917C22.4803 22.1962 22.4941 22.2004 22.5078 22.2048L22.5489 22.2179L22.59 22.2304L22.6311 22.2429L22.6722 22.255L22.7133 22.2669L22.7544 22.2785L22.7955 22.2899L22.8366 22.301L22.8777 22.3119L22.9188 22.3226L22.9599 22.333L23.0009 22.3432L23.0421 22.3531L23.0831 22.363L23.1243 22.3724L23.1653 22.3818L23.2065 22.3909L23.2475 22.3998L23.2887 22.4086L23.3297 22.417L23.3708 22.4254L23.4119 22.4334L23.453 22.4414L23.4941 22.4491L23.5352 22.4566L23.5763 22.4641L23.6174 22.4712L23.6585 22.4782L23.6996 22.485L23.7407 22.4917L23.7818 22.4982L23.8229 22.5044L23.864 22.5107L23.9051 22.5166L23.9462 22.5224L23.9873 22.5282L24.0284 22.5336L24.0695 22.539L24.1106 22.5442L24.1517 22.5492L24.1928 22.5542L24.2339 22.5588L24.275 22.5634L24.3161 22.568L24.3572 22.5722L24.3983 22.5764L24.4393 22.5805L24.4805 22.5843L24.5215 22.5881L24.5626 22.5917L24.6037 22.5952L24.6448 22.5986L24.6859 22.6018L24.727 22.6049L24.7681 22.608L24.8092 22.6107L24.8503 22.6135L24.8914 22.6162L24.9325 22.6186L24.9736 22.6209L25.0147 22.6233L25.0558 22.6253L25.0969 22.6273L25.138 22.6293L25.1791 22.631L25.2202 22.6327L25.2613 22.6343L25.3024 22.6356L25.3435 22.637L25.3846 22.6383L25.4257 22.6393L25.4668 22.6403L25.5079 22.6414L25.549 22.6421L25.5901 22.6427L25.6312 22.6435L25.6723 22.6439L25.7134 22.6442L25.7544 22.6446L25.7955 22.6448L25.8366 22.6449L25.8777 22.6449L25.9188 22.6448L25.9599 22.6446L26.001 22.6443L26.0422 22.644L26.0832 22.6435L26.1244 22.6429L26.1654 22.6424L26.2065 22.6415L26.2476 22.6407L26.2887 22.6399L26.3298 22.6388L26.3709 22.6377L26.412 22.6365L26.4531 22.6353L26.4942 22.6339L26.5353 22.6325L26.5764 22.6311L26.6175 22.6294L26.6586 22.6277L26.6997 22.626L26.7198 22.6252L26.7408 22.6241L26.7819 22.6222L26.823 22.62L26.8641 22.6178L26.9052 22.6153L26.9462 22.6128L26.9874 22.6101L27.0284 22.6073L27.0696 22.6043L27.1106 22.6012L27.1518 22.598L27.1928 22.5946L27.2339 22.5911L27.275 22.5875L27.3162 22.5839L27.3572 22.58L27.3983 22.5761L27.4394 22.572L27.4805 22.5679L27.5216 22.5636L27.5627 22.5592L27.6038 22.5547L27.6449 22.5501L27.686 22.5454L27.7271 22.5406L27.7682 22.5356L27.8093 22.5306L27.8504 22.5255L27.8915 22.5203L27.9326 22.515L27.9737 22.5096L28.0148 22.5041L28.0559 22.4985L28.097 22.4928L28.1381 22.487L28.1792 22.4811L28.2203 22.4752L28.2614 22.4691L28.3024 22.463L28.3436 22.4568L28.3846 22.4504L28.4258 22.444L28.4668 22.4375L28.508 22.431L28.549 22.4244L28.5901 22.4176L28.6312 22.4108L28.6723 22.4039L28.7134 22.3969L28.7545 22.3898L28.7956 22.3826L28.8367 22.3754L28.8778 22.3681L28.9189 22.3607L28.96 22.3532L29.0011 22.3457L29.0422 22.338L29.0833 22.3303L29.1244 22.3225L29.1655 22.3146L29.2066 22.3067L29.2477 22.2986L29.2888 22.2905L29.3299 22.2823L29.371 22.2741L29.4121 22.2657L29.4532 22.2572L29.4943 22.2487L29.5354 22.2402L29.5765 22.2314L29.6176 22.2227L29.6587 22.2138L29.6998 22.2048L29.7408 22.1958L29.7819 22.1867L29.823 22.1774L29.8641 22.1681L29.9053 22.1586L29.9463 22.149L29.9875 22.1393L30.0285 22.1295L30.0694 22.1195V20.3277L30.0285 20.3479L29.9875 20.368L29.9463 20.388L29.9053 20.4078L29.8641 20.4274L29.823 20.4469L29.7819 20.466L29.7408 20.4851L29.6998 20.5039L29.6587 20.5225L29.6176 20.5409L29.5765 20.5592L29.5354 20.5771L29.4943 20.5949L29.4532 20.6125L29.4121 20.6298L29.371 20.647L29.3299 20.6639L29.2888 20.6806L29.2477 20.697L29.2066 20.7133L29.1655 20.7294L29.1244 20.7451L29.0833 20.7607L29.0422 20.776L29.0011 20.7911L28.96 20.806L28.9189 20.8207L28.8778 20.8351L28.8367 20.8493L28.7956 20.8632L28.7545 20.877L28.7134 20.8905L28.6723 20.9037L28.6312 20.9168L28.5901 20.9296L28.549 20.9421L28.508 20.9545L28.4668 20.9666L28.4258 20.9785L28.3846 20.9901L28.3436 21.0015L28.3024 21.0126L28.2614 21.0236L28.2203 21.0343L28.1792 21.0448L28.1381 21.055L28.097 21.065L28.0559 21.0748L28.0148 21.0844L27.9737 21.0937L27.9326 21.1028L27.8915 21.1117L27.8504 21.1203L27.8093 21.1287L27.7682 21.1369L27.7271 21.1449L27.686 21.1526L27.6449 21.16L27.6038 21.1673L27.5627 21.1744L27.5216 21.1812L27.4805 21.1878L27.4394 21.1942L27.3983 21.2004L27.3572 21.2063L27.3162 21.2121L27.275 21.2176L27.2339 21.2228L27.1928 21.2279L27.1518 21.2328L27.1106 21.2374L27.0696 21.2418L27.0284 21.246L26.9874 21.2499L26.9462 21.2537L26.9052 21.2573L26.8641 21.2607L26.8391 21.2626L26.823 21.2637L26.7819 21.2664L26.7408 21.2692L26.6997 21.2714L26.6586 21.2734L26.6175 21.2753L26.5764 21.2766L26.5353 21.278L26.4942 21.2789L26.4531 21.2795L26.412 21.28C26.3982 21.28 26.3846 21.2799 26.3709 21.2798L26.3298 21.2797L26.2887 21.2791L26.2476 21.2782L26.2065 21.2772C26.1927 21.2767 26.1791 21.276 26.1654 21.2755C26.1518 21.275 26.138 21.2745 26.1244 21.2738L26.0832 21.2716L26.0422 21.2691L26.001 21.2663L25.9599 21.2631C25.9462 21.2619 25.9325 21.261 25.9188 21.2597C25.9051 21.2585 25.8914 21.257 25.8777 21.2556L25.8366 21.2515L25.7955 21.2468L25.7544 21.2418L25.7134 21.2365L25.6723 21.2307C25.6585 21.2287 25.6448 21.2267 25.6312 21.2246C25.6174 21.2225 25.6037 21.2201 25.5901 21.2179C25.5764 21.2156 25.5626 21.2135 25.549 21.2111C25.5352 21.2086 25.5216 21.206 25.5079 21.2034C25.4942 21.2009 25.4804 21.1985 25.4668 21.1958C25.453 21.1931 25.4394 21.1901 25.4257 21.1873C25.412 21.1844 25.3982 21.1817 25.3846 21.1787C25.3708 21.1757 25.3571 21.1724 25.3435 21.1693L25.3024 21.1597C25.2886 21.1564 25.275 21.1529 25.2613 21.1494C25.2476 21.1459 25.2338 21.1425 25.2202 21.1388C25.2064 21.1352 25.1928 21.1313 25.1791 21.1276C25.1654 21.1237 25.1516 21.1199 25.138 21.1159C25.1242 21.1119 25.1106 21.1077 25.0969 21.1035C25.0832 21.0993 25.0694 21.0951 25.0558 21.0908C25.042 21.0864 25.0284 21.0818 25.0147 21.0773C25.001 21.0727 24.9872 21.0681 24.9736 21.0634C24.9598 21.0587 24.9462 21.0537 24.9325 21.0487C24.9188 21.0438 24.905 21.0388 24.8914 21.0337C24.8776 21.0285 24.864 21.0231 24.8503 21.0177C24.8366 21.0123 24.8228 21.007 24.8092 21.0015C24.7954 20.9958 24.7818 20.9899 24.7681 20.984C24.7544 20.9782 24.7406 20.9724 24.727 20.9664C24.7132 20.9602 24.6996 20.9539 24.6859 20.9476C24.6722 20.9412 24.6584 20.9348 24.6448 20.9283C24.6311 20.9217 24.6173 20.9149 24.6037 20.9081C24.5899 20.9012 24.5763 20.8942 24.5626 20.8871C24.5489 20.8799 24.5351 20.8729 24.5215 20.8655C24.5077 20.858 24.4941 20.8503 24.4805 20.8426C24.4667 20.8348 24.4529 20.8271 24.4393 20.8192C24.4255 20.8111 24.4119 20.8028 24.3983 20.7945C24.3844 20.7861 24.3708 20.7775 24.3572 20.7689C24.3434 20.7602 24.3296 20.7515 24.3161 20.7426C24.3022 20.7335 24.2886 20.724 24.275 20.7146C24.2612 20.7051 24.2474 20.6955 24.2339 20.6858C24.2201 20.6759 24.2063 20.6661 24.1928 20.656C24.1789 20.6456 24.1653 20.635 24.1517 20.6244C24.1378 20.6136 24.1242 20.6028 24.1106 20.5918C24.0968 20.5805 24.083 20.5694 24.0695 20.5579C24.0556 20.5461 24.042 20.5341 24.0284 20.522C24.0145 20.5097 24.0009 20.4972 23.9873 20.4846C23.9735 20.4718 23.9597 20.4589 23.9462 20.4457C23.9324 20.4323 23.9186 20.4189 23.9051 20.4052C23.8912 20.391 23.8775 20.3765 23.864 20.362C23.8501 20.3472 23.8364 20.3321 23.8229 20.3169C23.809 20.3012 23.7953 20.2854 23.7818 20.2694C23.7679 20.2529 23.7542 20.2363 23.7407 20.2194C23.7268 20.202 23.713 20.1844 23.6996 20.1666C23.6857 20.1482 23.6719 20.1295 23.6585 20.1107C23.6446 20.0911 23.6308 20.0712 23.6174 20.0511C23.6034 20.0302 23.5897 20.009 23.5763 19.9875C23.5623 19.965 23.5486 19.9422 23.5352 19.9192C23.5211 19.895 23.5075 19.8704 23.4941 19.8455C23.48 19.8192 23.4663 19.7925 23.453 19.7655C23.4389 19.7368 23.4251 19.7076 23.4119 19.6782C23.3977 19.6465 23.3839 19.6145 23.3708 19.582C23.3563 19.546 23.3428 19.5094 23.3297 19.4724C23.3152 19.4313 23.3015 19.3898 23.2887 19.3475C23.2738 19.2985 23.2601 19.2486 23.2475 19.1979C23.232 19.1349 23.2184 19.0705 23.2065 19.0049C23.1887 18.9076 23.175 18.8076 23.1653 18.705C23.1543 18.5864 23.1486 18.4642 23.1486 18.3386C23.1486 18.2128 23.1543 18.0906 23.1653 17.9719C23.175 17.8692 23.1887 17.7692 23.2065 17.6719C23.2184 17.6063 23.232 17.5418 23.2475 17.4787C23.2601 17.428 23.2738 17.3781 23.2887 17.3291C23.3015 17.2868 23.3152 17.2452 23.3297 17.2041C23.3428 17.1671 23.3563 17.1304 23.3708 17.0944C23.3839 17.0619 23.3977 17.0299 23.4119 16.9982C23.4251 16.9687 23.4389 16.9396 23.453 16.9109C23.4663 16.8838 23.48 16.8571 23.4941 16.8308C23.5075 16.8059 23.5211 16.7813 23.5352 16.7571C23.5486 16.734 23.5623 16.7112 23.5763 16.6887C23.5897 16.6672 23.6034 16.646 23.6174 16.6251C23.6308 16.605 23.6446 16.5851 23.6585 16.5655C23.6719 16.5466 23.6857 16.528 23.6996 16.5095C23.713 16.4917 23.7268 16.4741 23.7407 16.4567C23.7542 16.4398 23.7679 16.4232 23.7818 16.4067C23.7953 16.3907 23.809 16.3749 23.8229 16.3592C23.8364 16.344 23.8501 16.3289 23.864 16.314C23.8775 16.2995 23.8912 16.285 23.9051 16.2709C23.9186 16.2571 23.9324 16.2437 23.9462 16.2303C23.9597 16.2171 23.9735 16.2042 23.9873 16.1914C24.0009 16.1788 24.0145 16.1662 24.0284 16.1539C24.042 16.1419 24.0556 16.1299 24.0695 16.1181C24.083 16.1066 24.0968 16.0954 24.1106 16.0842C24.1242 16.0732 24.1378 16.0623 24.1517 16.0515C24.1653 16.0409 24.1789 16.0303 24.1928 16.0199C24.2063 16.0098 24.2201 16 24.2339 15.9901C24.2474 15.9803 24.2612 15.9708 24.275 15.9613C24.2886 15.9519 24.3022 15.9424 24.3161 15.9333C24.3296 15.9243 24.3434 15.9157 24.3572 15.907C24.3708 15.8983 24.3844 15.8897 24.3983 15.8813C24.4119 15.873 24.4255 15.8648 24.4393 15.8567C24.4529 15.8487 24.4667 15.841 24.4805 15.8333C24.4941 15.8256 24.5077 15.8178 24.5215 15.8103C24.5351 15.803 24.5489 15.7959 24.5626 15.7887C24.5763 15.7816 24.5899 15.7746 24.6037 15.7677C24.6173 15.7609 24.6311 15.7542 24.6448 15.7475C24.6584 15.741 24.6722 15.7346 24.6859 15.7282C24.6996 15.7219 24.7132 15.7156 24.727 15.7094C24.7406 15.7034 24.7544 15.6976 24.7681 15.6917C24.7818 15.6859 24.7954 15.68 24.8092 15.6743C24.8228 15.6688 24.8366 15.6635 24.8503 15.6581C24.864 15.6527 24.8776 15.6473 24.8914 15.642C24.905 15.6369 24.9188 15.632 24.9325 15.627C24.9462 15.6221 24.9598 15.6171 24.9736 15.6123C24.9872 15.6076 25.001 15.603 25.0147 15.5984C25.0284 15.5939 25.042 15.5893 25.0558 15.5849C25.0694 15.5806 25.0832 15.5764 25.0969 15.5722C25.1106 15.568 25.1242 15.5639 25.138 15.5599L25.1791 15.5482C25.1928 15.5444 25.2064 15.5405 25.2202 15.5369C25.2338 15.5333 25.2476 15.5298 25.2613 15.5263C25.275 15.5229 25.2886 15.5193 25.3024 15.516L25.3435 15.5064C25.3571 15.5033 25.3708 15.5001 25.3846 15.497C25.3982 15.4941 25.412 15.4913 25.4257 15.4884C25.4394 15.4856 25.453 15.4826 25.4668 15.4799C25.4804 15.4772 25.4942 15.4748 25.5079 15.4723C25.5216 15.4697 25.5352 15.467 25.549 15.4646C25.5626 15.4622 25.5764 15.4601 25.5901 15.4578C25.6037 15.4556 25.6174 15.4532 25.6312 15.4511L25.6723 15.445L25.7134 15.4392L25.7544 15.4338L25.7955 15.4289L25.8366 15.4241L25.8777 15.42C25.8914 15.4187 25.9051 15.4172 25.9188 15.4159C25.9325 15.4147 25.9462 15.4137 25.9599 15.4126L26.001 15.4093L26.0422 15.4065L26.0832 15.4041L26.1244 15.4018C26.138 15.4011 26.1518 15.4007 26.1654 15.4002C26.1791 15.3996 26.1927 15.3989 26.2065 15.3985L26.2476 15.3974L26.2887 15.3966L26.3298 15.396L26.3709 15.3958C26.3846 15.3958 26.3982 15.3956 26.412 15.3957L26.4531 15.3962L26.4942 15.3968L26.5353 15.3977L26.5764 15.399L26.6175 15.4003L26.6586 15.4022L26.6997 15.4043L26.7408 15.4065L26.7819 15.4092L26.823 15.412L26.8391 15.413L26.8641 15.415L26.9052 15.4183L26.9462 15.4218L26.9874 15.4255L27.0284 15.4294L27.0696 15.4336L27.1106 15.4379L27.1518 15.4425L27.1928 15.4473L27.2339 15.4523L27.275 15.4575L27.3162 15.4629L27.3572 15.4686L27.3983 15.4744L27.4394 15.4805L27.4805 15.4868L27.5216 15.4933L27.5627 15.5001L27.6038 15.5071L27.6449 15.5143L27.686 15.5217L27.7271 15.5293L27.7682 15.5372L27.8093 15.5453L27.8504 15.5537L27.8915 15.5622L27.9326 15.571L27.9737 15.5801L28.0148 15.5893L28.0559 15.5988L28.097 15.6086L28.1381 15.6185L28.1792 15.6287L28.2203 15.6391L28.2614 15.6498L28.3024 15.6607L28.3436 15.6718L28.3846 15.6832L28.4258 15.6948L28.4668 15.7067L28.508 15.7188L28.549 15.7311L28.5901 15.7436L28.6312 15.7564L28.6723 15.7694L28.7134 15.7827L28.7545 15.7962L28.7956 15.81L28.8367 15.824L28.8778 15.8382L28.9189 15.8527L28.96 15.8674L29.0011 15.8823L29.0422 15.8975L29.0833 15.9129L29.1244 15.9285L29.1655 15.9444L29.2066 15.9605L29.2477 15.9768L29.2888 15.9934L29.3299 16.0102L29.371 16.0272L29.4121 16.0445L29.4532 16.062L29.4943 16.0797L29.5354 16.0976L29.5765 16.1157L29.6176 16.1341L29.6587 16.1526L29.6998 16.1714L29.7408 16.1904L29.7819 16.2096L29.823 16.229L29.8641 16.2486L29.9053 16.2683L29.9463 16.2883L29.9875 16.3085L30.0285 16.3289L30.0694 16.3493V14.5562L30.0285 14.5461L29.9875 14.5363L29.9463 14.5266L29.9053 14.517L29.8641 14.5076L29.823 14.4983L29.7819 14.489L29.7408 14.4799L29.6998 14.4708L29.6587 14.4619L29.6176 14.453L29.5765 14.4443L29.5354 14.4355L29.4943 14.427L29.4532 14.4185L29.4121 14.41L29.371 14.4016L29.3299 14.3934L29.2888 14.3852L29.2477 14.3771L29.2066 14.3691L29.1655 14.3611L29.1244 14.3532L29.0833 14.3454L29.0422 14.3377L29.0011 14.3301L28.96 14.3226L28.9189 14.3151L28.8778 14.3077L28.8367 14.3004L28.7956 14.2932L28.7545 14.286L28.7134 14.2789L28.6723 14.272L28.6312 14.2651L28.5901 14.2583L28.549 14.2515L28.508 14.2449L28.4668 14.2384L28.4258 14.2318L28.3846 14.2255L28.3436 14.2191L28.3024 14.2129L28.2614 14.2068L28.2203 14.2007L28.1792 14.1948L28.1381 14.1889L28.097 14.1832L28.0559 14.1775L28.0148 14.1719L27.9737 14.1664L27.9326 14.161L27.8915 14.1558L27.8504 14.1506L27.8093 14.1454L27.7682 14.1404L27.7271 14.1355L27.686 14.1308L27.6449 14.1261L27.6038 14.1215L27.5627 14.117L27.5216 14.1126L27.4805 14.1083L27.4394 14.1042L27.3983 14.1002L27.3572 14.0962L27.3162 14.0924L27.275 14.0887L27.2339 14.0852L27.1928 14.0817L27.1518 14.0784L27.1106 14.0752L27.0696 14.0721L27.0284 14.0691L26.9874 14.0664L26.9462 14.0636L26.9052 14.0612L26.8641 14.0587L26.823 14.0565L26.7819 14.0544L26.7408 14.0524L26.7198 14.0514L26.6997 14.0506L26.6586 14.0489L26.6175 14.0472L26.5764 14.0455L26.5353 14.0441L26.4942 14.0427L26.4531 14.0412L26.412 14.04L26.3709 14.0389L26.3298 14.0378L26.2887 14.0367L26.2476 14.0359L26.2065 14.035L26.1654 14.0342L26.1244 14.0337L26.0832 14.0331L26.0422 14.0326L26.001 14.0322L25.9599 14.032L25.9188 14.0318L25.8777 14.0317L25.8366 14.0318L25.7955 14.0318L25.7544 14.032L25.7134 14.0323L25.6723 14.0327L25.6312 14.0331L25.5901 14.0339L25.549 14.0345L25.5079 14.0352L25.4668 14.0363L25.4257 14.0373L25.3846 14.0383L25.3435 14.0396L25.3024 14.041L25.2613 14.0423L25.2202 14.044L25.1791 14.0457L25.138 14.0473L25.0969 14.0493L25.0558 14.0514L25.0147 14.0534L24.9736 14.0557L24.9325 14.0581L24.8914 14.0605L24.8503 14.0632L24.8092 14.0659L24.7681 14.0687L24.727 14.0718L24.6859 14.0749L24.6448 14.078L24.6037 14.0815L24.5626 14.0849L24.5215 14.0885L24.4805 14.0924L24.4393 14.0962L24.3983 14.1003L24.3572 14.1045L24.3161 14.1087L24.275 14.1133L24.2339 14.1179L24.1928 14.1225L24.1517 14.1275L24.1106 14.1325L24.0695 14.1378L24.0284 14.1432L23.9873 14.1486L23.9462 14.1543L23.9051 14.1601L23.864 14.1661L23.8229 14.1723L23.7818 14.1785L23.7407 14.1851L23.6996 14.1918L23.6585 14.1986L23.6174 14.2056L23.5763 14.2127L23.5352 14.2202L23.4941 14.2277L23.453 14.2354L23.4119 14.2434L23.3708 14.2514L23.3297 14.2598L23.2887 14.2683L23.2475 14.277L23.2065 14.2859L23.1653 14.295L23.1243 14.3044L23.0831 14.3138L23.0421 14.3237L23.0009 14.3336L22.9599 14.3439L22.9188 14.3543L22.8777 14.365L22.8366 14.3759L22.7955 14.387L22.7544 14.3984L22.7133 14.41L22.6722 14.422L22.6311 14.434L22.59 14.4465L22.5489 14.4591L22.5078 14.4722C22.4941 14.4765 22.4803 14.4808 22.4667 14.4852L22.4256 14.4989C22.4119 14.5034 22.3981 14.5079 22.3845 14.5126L22.3434 14.5268L22.3023 14.541C22.2885 14.5459 22.2749 14.5509 22.2612 14.5559C22.2475 14.5608 22.2337 14.5657 22.2201 14.5708L22.179 14.5863C22.1653 14.5914 22.1515 14.5965 22.1379 14.6018L22.0968 14.6179L22.0557 14.6342L22.0146 14.6509L21.9735 14.668L21.9324 14.6854L21.8913 14.7032L21.8503 14.7213L21.8092 14.74L21.7681 14.7588C21.7543 14.7652 21.7407 14.7718 21.727 14.7783L21.6859 14.7981L21.6448 14.8184L21.6037 14.8391C21.59 14.8461 21.5762 14.8531 21.5626 14.8602C21.5488 14.8673 21.5352 14.8747 21.5215 14.8819L21.4804 14.904L21.4393 14.9266C21.4255 14.9343 21.4118 14.9421 21.3982 14.9499C21.3844 14.9577 21.3707 14.9655 21.3571 14.9734C21.3433 14.9815 21.3297 14.9896 21.316 14.9977C21.3022 15.006 21.2885 15.0143 21.2749 15.0226C21.2612 15.031 21.2474 15.0394 21.2338 15.0479C21.22 15.0565 21.2063 15.0653 21.1927 15.074L21.1516 15.1006C21.1379 15.1097 21.1241 15.1187 21.1105 15.1278L21.0694 15.1558C21.0556 15.1653 21.042 15.1749 21.0284 15.1845C21.0146 15.1942 21.0008 15.204 20.9872 15.2139C20.9735 15.2239 20.9597 15.2338 20.9462 15.2438C20.9323 15.2541 20.9187 15.2645 20.9051 15.2749C20.8912 15.2855 20.8776 15.2961 20.8639 15.3067C20.8502 15.3175 20.8364 15.3283 20.8229 15.3392V15.3392Z" fill="white"/>
</svg>
