<svg width="95" height="79" viewBox="0 0 95 79" fill="none" xmlns="http://www.w3.org/2000/svg">
<g clip-path="url(#clip0_489_3612)">
<path d="M5.98927 70.8052L4.12211 76.4713H4.07902L2.1975 70.8052H0L3.06884 78.7972H5.02696L8.15325 70.8052H5.98927Z" fill="#F8941E"/>
<path d="M14.1569 73.2775C14.1569 73.0888 14.1186 72.9378 14.042 72.8151C13.9654 72.6972 13.8649 72.6028 13.7356 72.5321C13.6063 72.466 13.4579 72.4188 13.2951 72.3952C13.1324 72.3717 12.96 72.3622 12.7877 72.3622H11.9259V74.2494H12.7494C12.9313 74.2494 13.1084 74.2352 13.276 74.2022C13.4436 74.1739 13.5968 74.1173 13.7308 74.0418C13.8649 73.9663 13.9702 73.8672 14.0468 73.7445C14.1234 73.6219 14.1617 73.4615 14.1617 73.2775M16.1198 73.268C16.1198 73.7351 16.0336 74.1267 15.8565 74.4475C15.6794 74.7683 15.4448 75.0231 15.1479 75.2212C14.8511 75.4147 14.5064 75.5609 14.1186 75.6506C13.726 75.7402 13.3239 75.7874 12.9026 75.7874H11.9259V78.8021H9.96777V70.8101H12.9457C13.3909 70.8101 13.8026 70.8525 14.1904 70.9374C14.5734 71.0224 14.9133 71.1639 15.2006 71.3526C15.4879 71.546 15.7129 71.7961 15.8757 72.1075C16.0384 72.4188 16.1198 72.8057 16.1198 73.2633" fill="#F8941E"/>
<path d="M25.5657 72.9425L26.5759 75.6836H24.5364L25.5657 72.9425ZM24.6513 70.8101L21.2473 78.8021H23.3778L23.9762 77.231H27.1121L27.7441 78.8021H29.9176L26.552 70.8101H24.6513Z" fill="#F8941E"/>
<path d="M35.9978 73.2585C35.9978 73.0697 35.9547 72.9188 35.8781 72.8008C35.7967 72.6829 35.6914 72.5932 35.5669 72.5319C35.4424 72.4659 35.2988 72.4234 35.1408 72.4045C34.9828 72.3809 34.8344 72.3715 34.686 72.3715H33.6375V74.235H34.5711C34.7338 74.235 34.8966 74.2209 35.0642 74.1973C35.2318 74.169 35.385 74.1265 35.5238 74.0558C35.6626 73.9897 35.7775 73.8906 35.8637 73.7633C35.9547 73.6359 35.9978 73.4708 35.9978 73.2679M36.0792 78.8113L34.3173 75.641H33.6518V78.8113H31.7368V70.8193H34.8296C35.2174 70.8193 35.6004 70.8571 35.969 70.9373C36.3377 71.0175 36.668 71.1496 36.9649 71.3383C37.2569 71.527 37.4915 71.7771 37.6686 72.0837C37.8458 72.3904 37.9319 72.7772 37.9319 73.2349C37.9319 73.7774 37.7835 74.2303 37.4867 74.5983C37.1899 74.9663 36.7781 75.2305 36.2515 75.3909L38.3724 78.8113H36.0792Z" fill="#F8941E"/>
<path d="M39.5598 70.8052V72.4564H41.8531V78.7972H43.8112V72.4564H46.1044V70.8052H39.5598Z" fill="#F8941E"/>
<path d="M57.5324 70.8052V74.1501H53.4294V70.8052H52.2996V78.7972H53.4294V75.1409H57.5324V78.7972H58.6766V70.8052H57.5324Z" fill="#F8941E"/>
<path d="M68.7449 74.7915C68.7449 74.3527 68.6731 73.9423 68.5295 73.5554C68.3859 73.1686 68.18 72.8289 67.9119 72.5364C67.6438 72.2439 67.323 72.0127 66.9448 71.8428C66.5666 71.673 66.1405 71.5881 65.6665 71.5881C65.1926 71.5881 64.7808 71.673 64.4026 71.8428C64.0244 72.0127 63.7036 72.2439 63.4403 72.5364C63.177 72.8289 62.9711 73.1686 62.8275 73.5554C62.6839 73.9423 62.6121 74.3527 62.6121 74.7915C62.6121 75.2302 62.6839 75.6548 62.8275 76.0464C62.9711 76.438 63.1818 76.7777 63.4451 77.0655C63.7132 77.3533 64.034 77.5844 64.4074 77.7496C64.7808 77.9147 65.2021 77.9996 65.6665 77.9996C66.1309 77.9996 66.557 77.9194 66.9352 77.7496C67.3182 77.5844 67.6438 77.358 67.9119 77.0655C68.18 76.7777 68.3859 76.4333 68.5295 76.0464C68.6731 75.6548 68.7449 75.235 68.7449 74.7915ZM69.9706 74.7915C69.9706 75.4095 69.8605 75.9757 69.645 76.4899C69.4296 77.0041 69.128 77.4476 68.7449 77.8203C68.3619 78.193 67.9071 78.4808 67.3805 78.6884C66.8539 78.896 66.2793 78.9998 65.6617 78.9998C65.0441 78.9998 64.4696 78.896 63.9478 78.6884C63.4259 78.4808 62.9711 78.193 62.5881 77.8203C62.2051 77.4476 61.9083 77.0041 61.6928 76.4899C61.4822 75.9757 61.3721 75.4095 61.3721 74.7915C61.3721 74.1734 61.4774 73.5979 61.6928 73.0836C61.9083 72.5694 62.2051 72.1306 62.5881 71.7626C62.9711 71.3994 63.4212 71.1116 63.9478 70.9087C64.4696 70.7058 65.0394 70.6021 65.6617 70.6021C66.2841 70.6021 66.8539 70.7058 67.3805 70.9087C67.9071 71.1116 68.3619 71.3946 68.7449 71.7626C69.128 72.1306 69.4248 72.5694 69.645 73.0836C69.8652 73.5979 69.9706 74.1687 69.9706 74.7915Z" fill="#F8941E"/>
<path d="M75.7539 78.9997C75.2177 78.9997 74.7533 78.9101 74.3559 78.7355C73.9585 78.561 73.6282 78.3251 73.3697 78.0326C73.1111 77.7401 72.9149 77.4004 72.7904 77.0229C72.6659 76.6408 72.5989 76.2492 72.5989 75.8435V70.8096H73.7335V75.7774C73.7335 76.0464 73.767 76.3153 73.8389 76.5842C73.9059 76.8531 74.0208 77.089 74.1788 77.3013C74.3368 77.5136 74.5426 77.6834 74.7964 77.8108C75.0501 77.9382 75.3709 78.0043 75.7539 78.0043C76.1369 78.0043 76.4433 77.9429 76.7066 77.8108C76.9652 77.6834 77.1758 77.5136 77.329 77.3013C77.487 77.0937 77.5971 76.8531 77.6689 76.5842C77.736 76.3153 77.7743 76.0464 77.7743 75.7774V70.8096H78.9089V75.8435C78.9089 76.2492 78.8467 76.6408 78.7174 77.0229C78.5929 77.4051 78.4014 77.7401 78.1381 78.0326C77.8796 78.3251 77.5492 78.561 77.1519 78.7355C76.7545 78.9148 76.2901 78.9997 75.7539 78.9997Z" fill="#F8941E"/>
<path d="M85.9946 72.2863C85.8318 72.0693 85.6164 71.89 85.3387 71.7485C85.0658 71.607 84.7546 71.5409 84.4099 71.5409C84.228 71.5409 84.0412 71.5645 83.8545 71.6164C83.6678 71.6683 83.4955 71.7438 83.347 71.8523C83.1938 71.9608 83.0694 72.0976 82.9736 72.258C82.8779 72.4184 82.83 72.6119 82.83 72.8383C82.83 73.0648 82.8731 73.2393 82.9592 73.3856C83.0454 73.5318 83.1651 73.6545 83.3135 73.7583C83.4619 73.8621 83.6391 73.947 83.8402 74.0178C84.0412 74.0885 84.2567 74.164 84.4865 74.2395C84.7594 74.3244 85.0371 74.4141 85.3243 74.5226C85.6068 74.6264 85.8653 74.7679 86.0903 74.9425C86.3201 75.117 86.5068 75.3293 86.6505 75.5935C86.7941 75.853 86.8659 76.1833 86.8659 76.5796C86.8659 76.9758 86.7893 77.3533 86.6313 77.6599C86.4733 77.9619 86.2675 78.2166 86.0089 78.4148C85.7504 78.6129 85.4488 78.7639 85.1089 78.863C84.769 78.9621 84.4195 79.0092 84.0604 79.0092C83.5481 79.0092 83.055 78.9102 82.5762 78.7167C82.0975 78.5233 81.7049 78.2308 81.3889 77.8486L82.2698 77.1127C82.4613 77.391 82.7151 77.6175 83.0358 77.792C83.3566 77.9666 83.7061 78.0515 84.0795 78.0515C84.271 78.0515 84.4625 78.0232 84.6541 77.9713C84.8456 77.9194 85.0179 77.8345 85.1759 77.7213C85.3339 77.608 85.4632 77.4665 85.5589 77.2967C85.6594 77.1268 85.7073 76.9239 85.7073 76.6833C85.7073 76.4427 85.6547 76.2399 85.5541 76.0795C85.4488 75.919 85.3099 75.7822 85.1376 75.669C84.9605 75.5558 84.7594 75.4614 84.5248 75.3812C84.2902 75.301 84.046 75.2208 83.7875 75.1406C83.529 75.0651 83.2704 74.9755 83.0215 74.8623C82.7725 74.7537 82.5427 74.6122 82.3464 74.4471C82.1501 74.2772 81.9874 74.0697 81.8629 73.8196C81.7432 73.5696 81.681 73.2629 81.681 72.8949C81.681 72.4939 81.7623 72.1542 81.9251 71.8664C82.0879 71.5787 82.3033 71.3428 82.5667 71.1541C82.83 70.9653 83.1268 70.8285 83.4619 70.7436C83.7923 70.6587 84.1274 70.6162 84.4625 70.6162C84.9365 70.6162 85.377 70.7011 85.7935 70.8663C86.2052 71.0314 86.5404 71.2531 86.7893 71.5315L85.9898 72.3005L85.9946 72.2863Z" fill="#F8941E"/>
<path d="M89.6235 70.8052V78.7972H95V77.8064H90.7582V75.1409H94.5835V74.1831H90.7582V71.7912H94.8276V70.8052H89.6235Z" fill="#F8941E"/>
<path d="M0.775458 11.5775C1.23028 12.0115 1.85266 12.5965 2.6091 13.3089C2.89157 13.2051 3.1501 13.1202 3.34639 13.0636C18.8582 8.52033 29.7212 9.31764 43.0881 15.2715C50.0636 18.6353 60.6059 21.1405 66.8393 18.022C72.752 15.064 82.667 8.19008 87.4259 6.67094C88.4887 6.29351 89.5995 5.95855 90.7581 5.67076C92.5199 3.69871 93.87 2.22203 94.6791 1.41528C95.3493 0.650991 95.0382 -0.240678 93.2572 0.0612625C91.1459 0.400946 89.2308 0.938778 87.4259 1.57568C82.667 3.09482 72.7568 9.9687 66.8393 12.9268C60.6059 16.0405 50.0588 13.5401 43.0881 10.1763C29.7164 4.2271 18.8534 3.42507 3.34639 7.96834C2.09683 8.33633 -1.58961 9.71865 0.775458 11.5728V11.5775Z" fill="#DC1E4B"/>
<path d="M28.2516 41.9092L28.2661 41.8896H28.2564L28.2419 41.8994C28.2419 41.8994 28.2468 41.9043 28.2516 41.9092Z" fill="#F8941E"/>
<path d="M28.2563 41.8851L38.9662 30.1943L40.3881 31.4729L52.424 18.5366C49.0775 17.7676 45.8076 16.5881 43.0835 15.2719C29.7165 9.32268 18.8535 8.52065 3.34175 13.0639C2.09219 13.4319 -1.59425 14.8142 0.770819 16.6683C3.34654 19.131 11.27 26.4673 19.8924 34.3272L30.5735 22.6694L32.0002 23.9479L40.9386 14.3566C41.2498 14.484 41.561 14.6208 41.8722 14.7529L32.7088 24.5848L34.1307 25.8634L23.4257 37.5494L28.2515 41.8851H28.2563Z" fill="#F8941E"/>
<path d="M48.7805 38.9929L69.2714 16.7153C68.4096 17.2013 67.5909 17.64 66.8345 18.0175C63.3013 19.7866 58.3796 19.7442 53.5107 18.7629L41.106 32.1049L42.5279 33.3834L31.9522 44.9279L31.8181 45.0836L36.6392 49.4146L47.3586 37.7144L48.7805 38.9929Z" fill="#F8941E"/>
<path d="M93.2524 5.15208C91.141 5.49177 89.226 6.0296 87.4211 6.6665C83.8926 7.79407 77.5347 11.8608 72.0673 15.0973L49.4939 39.63L50.9158 40.9085L40.2251 52.5757C44.0695 55.9348 46.8128 58.2182 47.5022 58.5343C63.4736 42.555 89.633 11.5447 94.6695 6.5061C95.3398 5.74181 95.0286 4.85014 93.2476 5.15208H93.2524Z" fill="#F8941E"/>
</g>
<defs>
<clipPath id="clip0_489_3612">
<rect width="95" height="79" fill="white"/>
</clipPath>
</defs>
</svg>
