<svg width="252" height="64" viewBox="0 0 252 64" fill="none" xmlns="http://www.w3.org/2000/svg">
<path d="M0.835914 12.7858C1.32364 13.2512 1.99105 13.8786 2.80221 14.6425C3.10511 14.5312 3.38234 14.4401 3.59283 14.3794C20.2267 9.50747 31.8756 10.3625 46.2095 16.7471C53.6896 20.3542 64.9945 23.0406 71.6789 19.6965C78.0193 16.5245 88.6516 9.15334 93.7547 7.5243C94.8945 7.11957 96.0855 6.76037 97.328 6.45177C99.2172 4.33705 100.665 2.75355 101.533 1.88844C102.251 1.06886 101.918 0.11269 100.008 0.436473C97.7438 0.80073 95.6902 1.37747 93.7547 2.06045C88.6516 3.68949 78.0244 11.0606 71.6789 14.2327C64.9945 17.5717 53.6845 14.8904 46.2095 11.2832C31.8705 4.90368 20.2216 4.04362 3.59283 8.91556C2.25288 9.31017 -1.70024 10.7925 0.835914 12.7807V12.7858Z" fill="#979797"/>
<path d="M30.2997 45.3112L30.315 45.2905H30.3048L30.2896 45.3009C30.2896 45.3009 30.2946 45.306 30.2997 45.3112Z" fill="white"/>
<path d="M30.3049 45.2856L41.7895 32.7491L43.3142 34.1201L56.2209 20.248C52.6323 19.4233 49.1258 18.1586 46.2046 16.7471C31.8707 10.3675 20.2219 9.50747 3.58795 14.3794C2.24799 14.774 -1.70513 16.2563 0.831031 18.2446C3.59308 20.8854 12.0897 28.7524 21.3359 37.1808L32.7897 24.6798L34.3196 26.0508L43.9046 15.7656C44.2383 15.9022 44.572 16.0489 44.9057 16.1906L35.0794 26.7338L36.6042 28.1048L25.1247 40.6362L30.2997 45.2856H30.3049Z" fill="white"/>
<path d="M52.3137 42.1842L74.2869 18.295C73.3628 18.8161 72.4849 19.2866 71.6738 19.6914C67.8849 21.5885 62.6073 21.543 57.3861 20.4907L44.0841 34.7979L45.6089 36.1689L34.268 48.5486L34.1243 48.7155L39.2941 53.3598L50.789 40.8132L52.3137 42.1842Z" fill="white"/>
<path d="M100.003 5.89509C97.7387 6.25935 95.6851 6.83609 93.7496 7.51907C89.9659 8.7282 83.1481 13.0892 77.2851 16.5597L53.0787 42.8671L54.6035 44.2382L43.1394 56.7494C47.2619 60.3514 50.2037 62.8001 50.943 63.139C68.0697 46.0038 96.1215 12.7502 101.522 7.34706C102.241 6.52748 101.907 5.57131 99.9976 5.89509H100.003Z" fill="white"/>
<path d="M119.384 25.7465L116.603 34.1883H116.538L113.735 25.7465H110.461L115.033 37.6536H117.951L122.609 25.7465H119.384Z" fill="white"/>
<path d="M131.554 29.4296C131.554 29.1484 131.497 28.9235 131.382 28.7408C131.268 28.565 131.118 28.4245 130.926 28.319C130.733 28.2206 130.512 28.1503 130.27 28.1152C130.027 28.08 129.77 28.066 129.514 28.066H128.23V30.8776H129.456C129.728 30.8776 129.991 30.8565 130.241 30.8073C130.491 30.7651 130.719 30.6808 130.919 30.5683C131.118 30.4558 131.275 30.3082 131.39 30.1255C131.504 29.9427 131.561 29.7037 131.561 29.4296M134.478 29.4155C134.478 30.1114 134.35 30.6948 134.086 31.1728C133.822 31.6508 133.472 32.0303 133.03 32.3256C132.588 32.6137 132.074 32.8316 131.497 32.9652C130.912 33.0987 130.312 33.169 129.685 33.169H128.23V37.6606H125.312V25.7534H129.749C130.412 25.7534 131.026 25.8167 131.604 25.9432C132.174 26.0697 132.681 26.2806 133.109 26.5618C133.537 26.85 133.872 27.2225 134.114 27.6864C134.357 28.1503 134.478 28.7267 134.478 29.4085" fill="white"/>
<path d="M148.551 28.9305L150.056 33.0144H147.018L148.551 28.9305ZM147.189 25.7534L142.117 37.6606H145.291L146.183 35.3199H150.855L151.797 37.6606H155.035L150.02 25.7534H147.189Z" fill="white"/>
<path d="M164.093 29.4016C164.093 29.1204 164.029 28.8955 163.915 28.7198C163.794 28.544 163.637 28.4105 163.451 28.3191C163.266 28.2207 163.052 28.1574 162.817 28.1293C162.581 28.0942 162.36 28.0801 162.139 28.0801H160.577V30.8566H161.968C162.21 30.8566 162.453 30.8355 162.703 30.8004C162.952 30.7582 163.18 30.6949 163.387 30.5895C163.594 30.4911 163.765 30.3435 163.894 30.1537C164.029 29.9639 164.093 29.7179 164.093 29.4156M164.215 37.6747L161.59 32.9512H160.598V37.6747H157.745V25.7676H162.353C162.931 25.7676 163.501 25.8238 164.051 25.9433C164.6 26.0628 165.092 26.2596 165.534 26.5408C165.969 26.8219 166.319 27.1945 166.583 27.6513C166.847 28.1082 166.975 28.6846 166.975 29.3664C166.975 30.1748 166.754 30.8496 166.312 31.3978C165.87 31.9461 165.256 32.3397 164.471 32.5787L167.631 37.6747H164.215Z" fill="white"/>
<path d="M169.401 25.7465V28.2066H172.817V37.6536H175.735V28.2066H179.151V25.7465H169.401Z" fill="white"/>
<path d="M196.178 25.7465V30.73H190.065V25.7465H188.382V37.6536H190.065V32.2061H196.178V37.6536H197.883V25.7465H196.178Z" fill="white"/>
<path d="M212.883 31.686C212.883 31.0323 212.776 30.4208 212.562 29.8444C212.348 29.268 212.041 28.7619 211.642 28.3261C211.242 27.8903 210.764 27.5459 210.201 27.2928C209.637 27.0398 209.003 26.9133 208.296 26.9133C207.59 26.9133 206.977 27.0398 206.413 27.2928C205.85 27.5459 205.372 27.8903 204.98 28.3261C204.587 28.7619 204.281 29.268 204.067 29.8444C203.853 30.4208 203.746 31.0323 203.746 31.686C203.746 32.3397 203.853 32.9723 204.067 33.5557C204.281 34.1391 204.594 34.6452 204.987 35.074C205.386 35.5027 205.864 35.8472 206.42 36.0932C206.977 36.3392 207.605 36.4657 208.296 36.4657C208.988 36.4657 209.623 36.3462 210.187 36.0932C210.757 35.8472 211.242 35.5098 211.642 35.074C212.041 34.6452 212.348 34.1321 212.562 33.5557C212.776 32.9723 212.883 32.3467 212.883 31.686ZM214.709 31.686C214.709 32.6068 214.545 33.4503 214.224 34.2164C213.903 34.9826 213.454 35.6433 212.883 36.1986C212.312 36.7539 211.635 37.1827 210.85 37.492C210.065 37.8012 209.209 37.9559 208.289 37.9559C207.369 37.9559 206.513 37.8012 205.736 37.492C204.958 37.1827 204.281 36.7539 203.71 36.1986C203.139 35.6433 202.697 34.9826 202.376 34.2164C202.062 33.4503 201.898 32.6068 201.898 31.686C201.898 30.7652 202.055 29.9076 202.376 29.1415C202.697 28.3753 203.139 27.7216 203.71 27.1734C204.281 26.6321 204.951 26.2034 205.736 25.9011C206.513 25.5989 207.362 25.4442 208.289 25.4442C209.217 25.4442 210.065 25.5989 210.85 25.9011C211.635 26.2034 212.312 26.6251 212.883 27.1734C213.454 27.7216 213.896 28.3753 214.224 29.1415C214.552 29.9076 214.709 30.7582 214.709 31.686Z" fill="white"/>
<path d="M223.326 37.9559C222.527 37.9559 221.835 37.8224 221.243 37.5623C220.651 37.3022 220.159 36.9508 219.773 36.515C219.388 36.0792 219.096 35.5731 218.91 35.0108C218.725 34.4414 218.625 33.858 218.625 33.2535V25.7535H220.316V33.1551C220.316 33.5558 220.365 33.9564 220.472 34.3571C220.572 34.7577 220.743 35.1092 220.979 35.4255C221.214 35.7418 221.521 35.9948 221.899 36.1846C222.277 36.3744 222.755 36.4728 223.326 36.4728C223.896 36.4728 224.353 36.3814 224.745 36.1846C225.13 35.9948 225.444 35.7418 225.672 35.4255C225.908 35.1162 226.072 34.7577 226.179 34.3571C226.279 33.9564 226.336 33.5558 226.336 33.1551V25.7535H228.026V33.2535C228.026 33.858 227.933 34.4414 227.741 35.0108C227.555 35.5801 227.27 36.0792 226.878 36.515C226.493 36.9508 226 37.3022 225.408 37.5623C224.816 37.8294 224.125 37.9559 223.326 37.9559Z" fill="white"/>
<path d="M238.583 27.9536C238.34 27.6303 238.019 27.3632 237.606 27.1523C237.199 26.9414 236.735 26.843 236.222 26.843C235.951 26.843 235.673 26.8782 235.394 26.9555C235.116 27.0328 234.859 27.1453 234.638 27.3069C234.41 27.4686 234.225 27.6725 234.082 27.9114C233.939 28.1504 233.868 28.4386 233.868 28.776C233.868 29.1134 233.932 29.3735 234.061 29.5914C234.189 29.8093 234.367 29.992 234.588 30.1467C234.81 30.3013 235.073 30.4278 235.373 30.5333C235.673 30.6387 235.994 30.7512 236.336 30.8636C236.743 30.9901 237.156 31.1237 237.584 31.2854C238.005 31.44 238.39 31.6509 238.726 31.911C239.068 32.171 239.346 32.4873 239.56 32.8809C239.774 33.2675 239.881 33.7596 239.881 34.35C239.881 34.9405 239.767 35.5028 239.532 35.9597C239.296 36.4095 238.989 36.7891 238.604 37.0843C238.219 37.3795 237.77 37.6045 237.263 37.7521C236.757 37.8997 236.236 37.97 235.701 37.97C234.938 37.97 234.203 37.8224 233.49 37.5342C232.777 37.246 232.192 36.8102 231.721 36.2408L233.033 35.1443C233.319 35.559 233.697 35.8964 234.175 36.1565C234.653 36.4165 235.173 36.5431 235.73 36.5431C236.015 36.5431 236.3 36.5009 236.586 36.4236C236.871 36.3463 237.128 36.2197 237.363 36.051C237.598 35.8823 237.791 35.6715 237.934 35.4184C238.084 35.1654 238.155 34.8631 238.155 34.5047C238.155 34.1462 238.076 33.8439 237.927 33.6049C237.77 33.366 237.563 33.1621 237.306 32.9934C237.042 32.8247 236.743 32.6841 236.393 32.5646C236.044 32.4452 235.68 32.3257 235.295 32.2062C234.909 32.0937 234.524 31.9601 234.153 31.7914C233.782 31.6298 233.44 31.4189 233.148 31.1729C232.855 30.9199 232.613 30.6106 232.427 30.238C232.249 29.8655 232.156 29.4086 232.156 28.8603C232.156 28.2629 232.277 27.7568 232.52 27.328C232.762 26.8993 233.083 26.5478 233.476 26.2667C233.868 25.9855 234.31 25.7816 234.81 25.6551C235.302 25.5286 235.801 25.4653 236.3 25.4653C237.006 25.4653 237.663 25.5919 238.283 25.8379C238.897 26.0839 239.396 26.4143 239.767 26.829L238.576 27.9747L238.583 27.9536Z" fill="white"/>
<path d="M243.99 25.7465V37.6536H252V36.1775H245.68V32.2061H251.379V30.7792H245.68V27.2155H251.743V25.7465H243.99Z" fill="white"/>
</svg>
