<svg width="53" height="37" viewBox="0 0 53 37" fill="none" xmlns="http://www.w3.org/2000/svg">
<rect x="1" y="1.25537" width="50.6897" height="35" rx="4" stroke="white"/>
<path d="M29.7319 24.2553V14.4553H31.2299L35.5139 21.6093H34.7299L38.9439 14.4553H40.4419L40.4559 24.2553H38.7339L38.7199 17.1573H39.0839L35.4999 23.1353H34.6879L31.0479 17.1573H31.4679V24.2553H29.7319Z" fill="white"/>
<path d="M23.298 24.2553V15.9953H20.05V14.4553H28.3661V15.9953H25.118V24.2553H23.298Z" fill="white"/>
<path d="M9.92993 24.2553L14.3399 14.4553H16.1319L20.5559 24.2553H18.6519L14.8579 15.4213H15.5859L11.8059 24.2553H9.92993ZM11.9599 21.9873L12.4499 20.5593H17.7419L18.2319 21.9873H11.9599Z" fill="white"/>
</svg>
