<svg width="17" height="12" viewBox="0 0 17 12" fill="none" xmlns="http://www.w3.org/2000/svg">
<path d="M16.0095 2.04174C15.8332 1.37901 15.3117 0.856196 14.6482 0.677014C13.4485 0.355469 8.63519 0.355469 8.63519 0.355469C8.63519 0.355469 3.82428 0.355469 2.62217 0.677014C1.96113 0.853742 1.43964 1.37656 1.26091 2.04174C0.940186 3.24447 0.940186 5.75547 0.940186 5.75547C0.940186 5.75547 0.940186 8.26647 1.26091 9.4692C1.43719 10.1319 1.95868 10.6547 2.62217 10.8339C3.82428 11.1555 8.63519 11.1555 8.63519 11.1555C8.63519 11.1555 13.4485 11.1555 14.6482 10.8339C15.3092 10.6572 15.8307 10.1344 16.0095 9.4692C16.3302 8.26647 16.3302 5.75547 16.3302 5.75547C16.3302 5.75547 16.3302 3.24447 16.0095 2.04174Z" fill="#4D4D4D"/>
<path d="M7.09765 8.0701L11.0957 5.75547L7.09765 3.44083V8.0701Z" fill="white"/>
</svg>
