<svg width="52" height="37" viewBox="0 0 52 37" fill="none" xmlns="http://www.w3.org/2000/svg">
<rect x="0.689697" y="1.25537" width="50.6897" height="35" rx="4" stroke="white"/>
<path d="M23.1958 25.2594H19.821L21.9319 13.0088H25.3065L23.1958 25.2594Z" fill="white"/>
<path d="M35.4293 13.3083C34.7637 13.0604 33.7079 12.7867 32.4024 12.7867C29.0697 12.7867 26.7228 14.4548 26.7085 16.8397C26.6808 18.5992 28.3887 19.5765 29.6662 20.1632C30.9718 20.7627 31.4157 21.154 31.4157 21.6884C31.4024 22.5091 30.3606 22.8874 29.389 22.8874C28.0416 22.8874 27.3197 22.6923 26.2225 22.2357L25.7782 22.04L25.3059 24.79C26.0974 25.1285 27.5557 25.4288 29.0697 25.442C32.6108 25.442 34.9161 23.7997 34.9434 21.2583C34.9569 19.8637 34.055 18.7951 32.1107 17.9219C30.9303 17.3614 30.2074 16.9835 30.2074 16.4099C30.2213 15.8885 30.8188 15.3545 32.1513 15.3545C33.2484 15.3284 34.0545 15.5759 34.6651 15.8236L34.9704 15.9537L35.4293 13.3083Z" fill="white"/>
<path fill-rule="evenodd" clip-rule="evenodd" d="M41.4703 13.0088H44.0807L46.8033 25.2592H43.6786C43.6786 25.2592 43.3728 23.8517 43.2759 23.4216H38.9429C38.8176 23.7472 38.2347 25.2592 38.2347 25.2592H34.6936L39.7064 14.0252C40.0537 13.2302 40.6653 13.0088 41.4703 13.0088ZM41.2624 17.4918C41.2624 17.4918 40.1929 20.2157 39.915 20.9194H42.7201C42.5813 20.307 41.9422 17.3746 41.9422 17.3746L41.7064 16.319C41.6071 16.5908 41.4635 16.9645 41.3666 17.2165C41.3009 17.3874 41.2567 17.5024 41.2624 17.4918Z" fill="white"/>
<path fill-rule="evenodd" clip-rule="evenodd" d="M5.19837 13.0088H10.6281C11.364 13.0346 11.9612 13.2561 12.1555 14.0386L13.3354 19.6666C13.3356 19.6672 13.3358 19.6677 13.336 19.6683L13.6971 21.3625L17.0021 13.0088H20.5707L15.2661 25.2464H11.6974L8.68945 14.6017C7.65161 14.0322 6.46714 13.5742 5.14282 13.2563L5.19837 13.0088Z" fill="white"/>
</svg>
