<svg width="53" height="37" viewBox="0 0 53 37" fill="none" xmlns="http://www.w3.org/2000/svg">
<rect x="1.37939" y="1.25537" width="50.6897" height="35" rx="4" stroke="white"/>
<path d="M30.6466 18.5304C30.6466 15.253 28.8363 12.4192 26.847 10.4523C25.0885 9.07654 22.8692 8.2554 20.4573 8.2554C14.7474 8.2554 10.1189 12.8556 10.1189 18.5304C10.1189 24.2052 14.7474 28.8054 20.4573 28.8054C22.8692 28.8054 25.0885 27.9843 26.847 26.6085C29.5572 24.4882 30.6466 21.8078 30.6466 18.5304Z" fill="white"/>
<path d="M43.5659 18.5304C43.5659 24.2052 38.9374 28.8054 33.2274 28.8054C30.8156 28.8054 28.5963 27.9843 26.8372 26.6085C29.2425 24.7272 30.7866 21.8078 30.7866 18.5304C30.7866 15.253 29.2425 12.3337 26.8372 10.4523C28.5963 9.07654 30.8156 8.2554 33.2274 8.2554C38.9374 8.2554 43.5659 12.8556 43.5659 18.5304Z" stroke="white"/>
</svg>
